<?xml version="1.0" encoding="UTF-8"?>
<!DOCTYPE svg PUBLIC "-//W3C//DTD SVG 1.1//EN" "http://www.w3.org/Graphics/SVG/1.1/DTD/svg11.dtd">
<svg xmlns="http://www.w3.org/2000/svg" version="1.1" width="32px" height="32px" style="shape-rendering:geometricPrecision; text-rendering:geometricPrecision; image-rendering:optimizeQuality; fill-rule:evenodd; clip-rule:evenodd" xmlns:xlink="http://www.w3.org/1999/xlink">
<g><path style="opacity:0.956" fill="#3a3a3a" d="M 1.5,-0.5 C 10.8333,-0.5 20.1667,-0.5 29.5,-0.5C 29.8333,0.166667 30.1667,0.833333 30.5,1.5C 30.5,1.83333 30.5,2.16667 30.5,2.5C 29.5,1.83333 28.5,1.16667 27.5,0.5C 19.16,0.3336 10.8267,0.500266 2.5,1C 1.17723,1.81595 0.510559,2.98261 0.5,4.5C 0.166667,4.5 -0.166667,4.5 -0.5,4.5C -0.5,3.5 -0.5,2.5 -0.5,1.5C 0.5,1.16667 1.16667,0.5 1.5,-0.5 Z"/></g>
<g><path style="opacity:0.893" fill="#383838" d="M 30.5,1.5 C 30.8333,1.5 31.1667,1.5 31.5,1.5C 31.5,10.8333 31.5,20.1667 31.5,29.5C 30.5,29.8333 29.8333,30.5 29.5,31.5C 21.1667,31.5 12.8333,31.5 4.5,31.5C 4.5,31.1667 4.5,30.8333 4.5,30.5C 12.5069,30.6664 20.5069,30.4997 28.5,30C 29.056,29.6174 29.3893,29.1174 29.5,28.5C 30.493,20.0161 30.8264,11.3494 30.5,2.5C 30.5,2.16667 30.5,1.83333 30.5,1.5 Z"/></g>
<g><path style="opacity:1" fill="#500980" d="M 23.5,2.5 C 25.4147,2.21552 27.0813,2.54885 28.5,3.5C 28.5,5.5 28.5,7.5 28.5,9.5C 27.8333,7.83333 27.1667,6.16667 26.5,4.5C 25.1667,4.83333 23.8333,5.16667 22.5,5.5C 22.5,5.16667 22.5,4.83333 22.5,4.5C 23.3382,4.15829 23.6716,3.49162 23.5,2.5 Z"/></g>
<g><path style="opacity:1" fill="#6b0a97" d="M 8.5,4.5 C 9.16667,5.16667 9.83333,5.83333 10.5,6.5C 9.16667,6.5 7.83333,6.5 6.5,6.5C 6.63088,5.62356 6.29755,4.95689 5.5,4.5C 4.68156,7.10707 4.18156,9.77374 4,12.5C 3.61742,11.944 3.11742,11.6107 2.5,11.5C 2.5,9.83333 2.5,8.16667 2.5,6.5C 3.40397,5.79105 3.73731,4.79105 3.5,3.5C 5.29152,3.36596 6.95819,3.69929 8.5,4.5 Z"/></g>
<g><path style="opacity:1" fill="#350170" d="M 15.5,2.5 C 18.1667,2.5 20.8333,2.5 23.5,2.5C 23.6716,3.49162 23.3382,4.15829 22.5,4.5C 19.8333,4.5 17.1667,4.5 14.5,4.5C 14.8333,3.83333 15.1667,3.16667 15.5,2.5 Z"/></g>
<g><path style="opacity:1" fill="#330365" d="M 3.5,2.5 C 7.5,2.5 11.5,2.5 15.5,2.5C 15.1667,3.16667 14.8333,3.83333 14.5,4.5C 12.4912,4.46466 10.4912,4.46466 8.5,4.5C 6.95819,3.69929 5.29152,3.36596 3.5,3.5C 3.73731,4.79105 3.40397,5.79105 2.5,6.5C 2.23219,4.90097 2.56552,3.56764 3.5,2.5 Z"/></g>
<g><path style="opacity:1" fill="#3f3e40" d="M 28.5,3.5 C 29.4927,11.6499 29.8261,19.9832 29.5,28.5C 28.8333,28.5 28.1667,28.5 27.5,28.5C 27.5,28.1667 27.5,27.8333 27.5,27.5C 28.4896,21.69 28.8229,15.69 28.5,9.5C 28.5,7.5 28.5,5.5 28.5,3.5 Z"/></g>
<g><path style="opacity:1" fill="#4f0380" d="M 14.5,4.5 C 17.1667,4.5 19.8333,4.5 22.5,4.5C 22.5,4.83333 22.5,5.16667 22.5,5.5C 21.2597,6.65882 19.9264,7.65882 18.5,8.5C 16.9826,8.51056 15.8159,9.17723 15,10.5C 14.0934,8.39092 12.5934,7.05759 10.5,6.5C 9.83333,5.83333 9.16667,5.16667 8.5,4.5C 10.4912,4.46466 12.4912,4.46466 14.5,4.5 Z"/></g>
<g><path style="opacity:1" fill="#1b121b" d="M 6.5,6.5 C 7.78041,7.93127 9.44708,8.59794 11.5,8.5C 11.2965,10.3904 11.9632,11.8904 13.5,13C 12.552,13.4828 11.552,13.6495 10.5,13.5C 8.2929,12.8697 6.62623,11.5363 5.5,9.5C 5.26269,8.20895 5.59603,7.20895 6.5,6.5 Z"/></g>
<g><path style="opacity:1" fill="#1b121b" d="M 24.5,11.5 C 22.6943,12.0241 21.0276,12.6908 19.5,13.5C 18.7611,13.631 18.0944,13.4643 17.5,13C 18.3366,11.9887 18.67,10.8221 18.5,9.5C 20.7814,8.79295 22.9481,7.79295 25,6.5C 24.9813,8.10747 24.8146,9.77414 24.5,11.5 Z"/></g>
<g><path style="opacity:1" fill="#9c24be" d="M 6.5,6.5 C 7.83333,6.5 9.16667,6.5 10.5,6.5C 12.5934,7.05759 14.0934,8.39092 15,10.5C 15.8159,9.17723 16.9826,8.51056 18.5,8.5C 18.5,8.83333 18.5,9.16667 18.5,9.5C 17.5326,10.8062 16.1993,11.4729 14.5,11.5C 13.7281,10.3065 12.7281,9.30646 11.5,8.5C 9.44708,8.59794 7.78041,7.93127 6.5,6.5 Z"/></g>
<g><path style="opacity:1" fill="#3e3e3e" d="M -0.5,4.5 C -0.166667,4.5 0.166667,4.5 0.5,4.5C 0.333622,12.5069 0.500289,20.5069 1,28.5C 1.38258,29.056 1.88258,29.3893 2.5,29.5C 2.84171,30.3382 3.50838,30.6716 4.5,30.5C 4.5,30.8333 4.5,31.1667 4.5,31.5C 3.5,31.5 2.5,31.5 1.5,31.5C 1.16667,30.5 0.5,29.8333 -0.5,29.5C -0.5,21.1667 -0.5,12.8333 -0.5,4.5 Z"/></g>
<g><path style="opacity:1" fill="#cb5cd5" d="M 26.5,4.5 C 26.5701,8.42479 25.9034,12.0915 24.5,15.5C 24.5,14.1667 24.5,12.8333 24.5,11.5C 24.8146,9.77414 24.9813,8.10747 25,6.5C 22.9481,7.79295 20.7814,8.79295 18.5,9.5C 18.5,9.16667 18.5,8.83333 18.5,8.5C 19.9264,7.65882 21.2597,6.65882 22.5,5.5C 23.8333,5.16667 25.1667,4.83333 26.5,4.5 Z"/></g>
<g><path style="opacity:1" fill="#df6ee3" d="M 24.5,11.5 C 24.5,12.8333 24.5,14.1667 24.5,15.5C 24.5,16.1667 24.5,16.8333 24.5,17.5C 24.5,19.8333 24.5,22.1667 24.5,24.5C 23.5386,22.7354 23.2053,20.7354 23.5,18.5C 23.7678,16.901 23.4345,15.5676 22.5,14.5C 21.791,13.596 20.791,13.2627 19.5,13.5C 21.0276,12.6908 22.6943,12.0241 24.5,11.5 Z"/></g>
<g><path style="opacity:1" fill="#dd6fe1" d="M 5.5,9.5 C 6.62623,11.5363 8.2929,12.8697 10.5,13.5C 9.50838,13.3284 8.84171,13.6618 8.5,14.5C 7.66175,14.8417 7.32842,15.5084 7.5,16.5C 7.5,16.8333 7.5,17.1667 7.5,17.5C 7.16667,17.5 6.83333,17.5 6.5,17.5C 5.73465,14.9039 5.40132,12.2372 5.5,9.5 Z"/></g>
<g><path style="opacity:1" fill="#d663db" d="M 11.5,8.5 C 12.7281,9.30646 13.7281,10.3065 14.5,11.5C 14.6399,13.1238 13.9733,14.2904 12.5,15C 14.3817,15.1981 16.0484,15.6981 17.5,16.5C 15.2967,16.9349 13.2967,16.9349 11.5,16.5C 10.5,15.8333 9.5,15.1667 8.5,14.5C 8.84171,13.6618 9.50838,13.3284 10.5,13.5C 11.552,13.6495 12.552,13.4828 13.5,13C 11.9632,11.8904 11.2965,10.3904 11.5,8.5 Z"/></g>
<g><path style="opacity:1" fill="#eb64f1" d="M 18.5,9.5 C 18.67,10.8221 18.3366,11.9887 17.5,13C 18.0944,13.4643 18.7611,13.631 19.5,13.5C 20.791,13.2627 21.791,13.596 22.5,14.5C 21.2905,14.9321 20.2905,15.5987 19.5,16.5C 18.8333,16.5 18.5,16.8333 18.5,17.5C 17.8333,17.5 17.5,17.1667 17.5,16.5C 16.0484,15.6981 14.3817,15.1981 12.5,15C 13.9733,14.2904 14.6399,13.1238 14.5,11.5C 16.1993,11.4729 17.5326,10.8062 18.5,9.5 Z"/></g>
<g><path style="opacity:1" fill="#a1a0a2" d="M 27.5,0.5 C 19.5,1.16667 11.5,1.83333 3.5,2.5C 2.56552,3.56764 2.23219,4.90097 2.5,6.5C 2.5,8.16667 2.5,9.83333 2.5,11.5C 2.5,13.5 2.5,15.5 2.5,17.5C 2.5,19.5 2.5,21.5 2.5,23.5C 2.5,24.8333 2.5,26.1667 2.5,27.5C 2.5,28.1667 2.5,28.8333 2.5,29.5C 1.88258,29.3893 1.38258,29.056 1,28.5C 0.500289,20.5069 0.333622,12.5069 0.5,4.5C 0.510559,2.98261 1.17723,1.81595 2.5,1C 10.8267,0.500266 19.16,0.3336 27.5,0.5 Z"/></g>
<g><path style="opacity:1" fill="#871cb2" d="M 6.5,6.5 C 5.59603,7.20895 5.26269,8.20895 5.5,9.5C 5.40132,12.2372 5.73465,14.9039 6.5,17.5C 5.16667,17.5 3.83333,17.5 2.5,17.5C 2.5,15.5 2.5,13.5 2.5,11.5C 3.11742,11.6107 3.61742,11.944 4,12.5C 4.18156,9.77374 4.68156,7.10707 5.5,4.5C 6.29755,4.95689 6.63088,5.62356 6.5,6.5 Z"/></g>
<g><path style="opacity:1" fill="#0d0410" d="M 8.5,14.5 C 9.5,15.1667 10.5,15.8333 11.5,16.5C 11.5,16.8333 11.5,17.1667 11.5,17.5C 10.5041,17.4142 9.67076,17.7476 9,18.5C 8.72158,17.5842 8.22158,16.9175 7.5,16.5C 7.32842,15.5084 7.66175,14.8417 8.5,14.5 Z"/></g>
<g><path style="opacity:1" fill="#1b101f" d="M 22.5,14.5 C 23.4345,15.5676 23.7678,16.901 23.5,18.5C 21.6783,19.4286 20.3449,18.7619 19.5,16.5C 20.2905,15.5987 21.2905,14.9321 22.5,14.5 Z"/></g>
<g><path style="opacity:1" fill="#818181" d="M 27.5,0.5 C 28.5,1.16667 29.5,1.83333 30.5,2.5C 30.8264,11.3494 30.493,20.0161 29.5,28.5C 29.8261,19.9832 29.4927,11.6499 28.5,3.5C 27.0813,2.54885 25.4147,2.21552 23.5,2.5C 20.8333,2.5 18.1667,2.5 15.5,2.5C 11.5,2.5 7.5,2.5 3.5,2.5C 11.5,1.83333 19.5,1.16667 27.5,0.5 Z"/></g>
<g><path style="opacity:1" fill="#4c137b" d="M 11.5,16.5 C 13.2967,16.9349 15.2967,16.9349 17.5,16.5C 17.5,17.1667 17.8333,17.5 18.5,17.5C 20.8504,19.2133 21.8504,21.5466 21.5,24.5C 20.6618,24.1583 20.3284,23.4916 20.5,22.5C 20.0472,21.5416 19.3805,20.7083 18.5,20C 16.1667,19.3333 13.8333,19.3333 11.5,20C 9.96317,21.1096 9.2965,22.6096 9.5,24.5C 9.5,24.8333 9.5,25.1667 9.5,25.5C 9.16667,25.5 8.83333,25.5 8.5,25.5C 8.01558,22.2118 9.01558,19.5452 11.5,17.5C 11.5,17.1667 11.5,16.8333 11.5,16.5 Z"/></g>
<g><path style="opacity:1" fill="#7e0db2" d="M 26.5,4.5 C 27.1667,6.16667 27.8333,7.83333 28.5,9.5C 28.8229,15.69 28.4896,21.69 27.5,27.5C 27.9763,23.6215 26.9763,20.2882 24.5,17.5C 24.5,16.8333 24.5,16.1667 24.5,15.5C 25.9034,12.0915 26.5701,8.42479 26.5,4.5 Z"/></g>
<g><path style="opacity:1" fill="#a815e0" d="M 2.5,17.5 C 3.83333,17.5 5.16667,17.5 6.5,17.5C 6.48285,19.5648 6.14952,21.5648 5.5,23.5C 4.5,23.5 3.5,23.5 2.5,23.5C 2.5,21.5 2.5,19.5 2.5,17.5 Z"/></g>
<g><path style="opacity:1" fill="#7019bd" d="M 20.5,22.5 C 17.332,23.792 14.1653,23.792 11,22.5C 10.7216,23.4158 10.2216,24.0825 9.5,24.5C 9.2965,22.6096 9.96317,21.1096 11.5,20C 13.8333,19.3333 16.1667,19.3333 18.5,20C 19.3805,20.7083 20.0472,21.5416 20.5,22.5 Z"/></g>
<g><path style="opacity:1" fill="#d853e9" d="M 6.5,17.5 C 6.83333,17.5 7.16667,17.5 7.5,17.5C 7.23824,20.7484 7.23824,23.7484 7.5,26.5C 7.44001,27.0431 7.10667,27.3764 6.5,27.5C 5.57131,26.3112 5.23798,24.9778 5.5,23.5C 6.14952,21.5648 6.48285,19.5648 6.5,17.5 Z"/></g>
<g><path style="opacity:1" fill="#4f1c6f" d="M 19.5,16.5 C 20.3449,18.7619 21.6783,19.4286 23.5,18.5C 23.2053,20.7354 23.5386,22.7354 24.5,24.5C 24.631,25.2389 24.4643,25.9056 24,26.5C 23.3292,25.7476 22.4959,25.4142 21.5,25.5C 21.5,25.1667 21.5,24.8333 21.5,24.5C 21.8504,21.5466 20.8504,19.2133 18.5,17.5C 18.5,16.8333 18.8333,16.5 19.5,16.5 Z"/></g>
<g><path style="opacity:1" fill="#cc26f3" d="M 2.5,23.5 C 3.5,23.5 4.5,23.5 5.5,23.5C 5.23798,24.9778 5.57131,26.3112 6.5,27.5C 7.10667,27.3764 7.44001,27.0431 7.5,26.5C 7.5,25.8333 7.83333,25.5 8.5,25.5C 8.83333,25.5 9.16667,25.5 9.5,25.5C 10.5,25.5 11.5,25.5 12.5,25.5C 11.6935,26.7281 10.6935,27.7281 9.5,28.5C 7.05035,28.702 4.71702,28.3686 2.5,27.5C 2.5,26.1667 2.5,24.8333 2.5,23.5 Z"/></g>
<g><path style="opacity:1" fill="#e761f5" d="M 20.5,22.5 C 20.3284,23.4916 20.6618,24.1583 21.5,24.5C 21.5,24.8333 21.5,25.1667 21.5,25.5C 18.5,25.5 15.5,25.5 12.5,25.5C 11.5,25.5 10.5,25.5 9.5,25.5C 9.5,25.1667 9.5,24.8333 9.5,24.5C 10.2216,24.0825 10.7216,23.4158 11,22.5C 14.1653,23.792 17.332,23.792 20.5,22.5 Z"/></g>
<g><path style="opacity:1" fill="#cf25f9" d="M 24.5,17.5 C 26.9763,20.2882 27.9763,23.6215 27.5,27.5C 26.2719,26.6935 25.2719,25.6935 24.5,24.5C 24.5,22.1667 24.5,19.8333 24.5,17.5 Z"/></g>
<g><path style="opacity:1" fill="#512363" d="M 7.5,16.5 C 8.22158,16.9175 8.72158,17.5842 9,18.5C 9.67076,17.7476 10.5041,17.4142 11.5,17.5C 9.01558,19.5452 8.01558,22.2118 8.5,25.5C 7.83333,25.5 7.5,25.8333 7.5,26.5C 7.23824,23.7484 7.23824,20.7484 7.5,17.5C 7.5,17.1667 7.5,16.8333 7.5,16.5 Z"/></g>
<g><path style="opacity:1" fill="#ec28fb" d="M 12.5,25.5 C 15.5,25.5 18.5,25.5 21.5,25.5C 20.8902,26.391 20.5569,27.391 20.5,28.5C 16.8333,28.5 13.1667,28.5 9.5,28.5C 10.6935,27.7281 11.6935,26.7281 12.5,25.5 Z"/></g>
<g><path style="opacity:1" fill="#d843f0" d="M 24.5,24.5 C 25.2719,25.6935 26.2719,26.6935 27.5,27.5C 27.5,27.8333 27.5,28.1667 27.5,28.5C 25.1667,28.5 22.8333,28.5 20.5,28.5C 20.5569,27.391 20.8902,26.391 21.5,25.5C 22.4959,25.4142 23.3292,25.7476 24,26.5C 24.4643,25.9056 24.631,25.2389 24.5,24.5 Z"/></g>
<g><path style="opacity:1" fill="#3d3c3d" d="M 2.5,27.5 C 4.71702,28.3686 7.05035,28.702 9.5,28.5C 13.1667,28.5 16.8333,28.5 20.5,28.5C 22.8333,28.5 25.1667,28.5 27.5,28.5C 19.3501,29.4927 11.0168,29.8261 2.5,29.5C 2.5,28.8333 2.5,28.1667 2.5,27.5 Z"/></g>
<g><path style="opacity:1" fill="#d5d5d5" d="M 27.5,28.5 C 28.1667,28.5 28.8333,28.5 29.5,28.5C 29.3893,29.1174 29.056,29.6174 28.5,30C 20.5069,30.4997 12.5069,30.6664 4.5,30.5C 3.50838,30.6716 2.84171,30.3382 2.5,29.5C 11.0168,29.8261 19.3501,29.4927 27.5,28.5 Z"/></g>
</svg>
