<svg xmlns="http://www.w3.org/2000/svg" xmlns:v="https://svgstorm.com"
viewBox = "0 0 172 172"
width="172"
height="172">
<g fill="None" fill-opacity="0.0" stroke="#565557" stroke-opacity="1.00" stroke-width="0.3"><path d="
M 0.00 94.00 
C 5.74 88.14 2.02 81.34 2.00 73.00 C 1.98 64.66 3.51 56.66 6.00 49.00
C 7.75 49.83 6.66 52.44 7.00 54.00
C 10.11 41.45 14.96 29.81 21.00 18.00
C 19.29 20.65 16.07 24.73 13.00 25.00
C 16.05 15.63 22.06 7.33 29.00 0.00
L 0.00 0.00
L 0.00 94.00 Z"/>
</g>
<g fill="None" fill-opacity="0.0" stroke="#2F2034" stroke-opacity="1.00" stroke-width="0.3"><path d="
M 21.00 18.00 
C 24.33 11.48 29.03 5.68 34.00 0.00
L 29.00 0.00
C 22.06 7.33 16.05 15.63 13.00 25.00
C 16.07 24.73 19.29 20.65 21.00 18.00 Z"/>
</g>
<g fill="None" fill-opacity="0.0" stroke="#AEADAE" stroke-opacity="1.00" stroke-width="0.3"><path d="
M 21.00 18.00 
C 14.96 29.81 10.11 41.45 7.00 54.00
C 4.87 62.59 4.62 75.98 6.00 85.00
C 6.70 88.61 8.06 95.37 12.00 97.00
C 12.00 100.33 12.00 103.67 12.00 107.00
C 10.44 106.59 9.31 107.46 8.00 108.00
C 5.45 114.59 3.79 123.94 3.00 131.00
C 2.76 133.18 2.15 136.46 2.00 138.00
C 1.76 149.86 2.18 161.51 7.00 172.00
L 32.00 172.00
C 30.43 164.31 26.67 155.54 29.00 147.00 C 31.33 138.46 29.58 132.33 26.02 124.98 C 22.47 117.62 24.00 108.30 22.00 102.00
C 25.01 109.08 31.09 113.81 37.00 119.00
C 30.66 105.92 29.17 92.77 34.00 79.00
C 31.00 79.00 28.00 79.00 25.00 79.00
C 22.75 78.66 16.59 75.69 22.00 74.00
C 22.79 73.75 24.17 74.00 25.00 74.00
C 28.95 74.00 33.84 74.69 37.00 73.00
C 41.64 69.11 42.55 58.52 45.92 52.92 C 49.30 47.33 53.81 39.47 57.00 34.00
C 57.74 32.72 58.37 30.48 59.00 29.00
C 61.82 22.39 65.23 15.64 69.00 10.00
C 70.10 23.01 63.22 37.89 67.00 52.00
C 68.09 59.65 68.16 70.76 75.00 75.00
C 72.83 80.59 76.93 85.50 80.00 90.00
C 82.15 91.23 82.21 91.08 83.00 89.00
C 82.74 86.36 83.19 83.65 83.00 81.00
C 89.53 84.58 95.09 95.43 103.00 99.00
C 104.30 92.52 112.29 84.05 106.00 79.00
C 112.81 76.94 112.08 68.42 114.00 62.00
C 115.44 53.47 117.00 44.83 117.00 36.00
C 117.00 33.70 115.37 26.70 118.31 25.31 C 121.24 23.91 121.62 33.07 121.00 35.00
C 120.58 26.54 127.66 25.46 127.00 35.00
C 128.30 43.15 132.59 52.52 136.32 59.68 C 140.05 66.84 145.44 76.47 154.00 77.00
C 154.91 80.53 156.31 84.27 160.00 86.00
C 160.30 88.67 157.98 89.91 157.00 92.00
C 156.94 95.14 156.85 98.06 156.00 101.00
C 156.65 99.89 158.40 98.75 158.00 97.00
C 160.21 96.29 161.46 97.90 161.00 100.00
C 164.84 85.83 169.56 67.67 169.00 53.00
C 168.91 50.65 169.91 46.94 167.00 46.00
C 168.22 56.73 138.70 47.71 149.00 39.00
C 155.57 39.86 164.90 43.76 170.00 41.00
C 170.37 36.79 171.00 32.52 171.00 28.00
C 171.00 25.16 170.21 21.02 172.00 19.00
L 172.00 5.00
C 170.51 3.84 169.98 1.66 169.00 0.00
L 34.00 0.00
C 29.03 5.68 24.33 11.48 21.00 18.00
M 35.00 18.00 
C 34.67 21.88 33.43 26.89 39.00 27.00
C 39.42 30.88 38.60 34.36 38.00 38.00
C 46.22 38.62 39.34 48.84 36.00 52.00
C 31.15 49.74 24.58 48.79 22.00 55.00
C 18.44 54.40 15.23 52.63 12.00 51.00
C 14.46 38.05 24.23 27.94 29.00 16.00
C 30.77 17.45 33.22 16.57 35.00 18.00
M 80.00 69.00 
C 80.74 71.55 81.96 75.98 80.00 78.00
C 78.59 75.82 76.62 73.85 77.00 71.00
C 74.96 61.93 73.81 52.67 74.00 43.00
C 74.07 39.41 73.69 35.93 76.00 33.00
C 79.09 38.87 82.94 35.12 91.07 36.93 C 99.20 38.73 100.40 46.62 95.00 53.00
C 89.42 50.23 83.22 56.64 79.00 51.00
C 78.36 56.95 81.08 62.46 80.00 69.00 Z"/>
</g>
<g fill="None" fill-opacity="0.0" stroke="#3E2E46" stroke-opacity="1.00" stroke-width="0.3"><path d="
M 172.00 5.00 
L 172.00 0.00
L 169.00 0.00
C 169.98 1.66 170.51 3.84 172.00 5.00 Z"/>
</g>
<g fill="None" fill-opacity="0.0" stroke="#6D6070" stroke-opacity="1.00" stroke-width="0.3"><path d="
M 59.00 29.00 
C 59.35 28.77 60.84 28.77 61.00 29.00
C 62.26 27.43 63.03 24.99 65.00 24.00
C 64.38 27.56 63.60 31.16 64.00 35.00
C 64.00 39.00 64.00 43.00 64.00 47.00
C 64.03 47.11 66.67 50.84 67.00 52.00
C 63.22 37.89 70.10 23.01 69.00 10.00
C 65.23 15.64 61.82 22.39 59.00 29.00 Z"/>
</g>
<g fill="None" fill-opacity="0.0" stroke="#B0A2A1" stroke-opacity="1.00" stroke-width="0.3"><path d="
M 35.00 18.00 
C 33.22 16.57 30.77 17.45 29.00 16.00
C 24.23 27.94 14.46 38.05 12.00 51.00
C 15.23 52.63 18.44 54.40 22.00 55.00
C 24.58 48.79 31.15 49.74 36.00 52.00
C 39.34 48.84 46.22 38.62 38.00 38.00
C 38.60 34.36 39.42 30.88 39.00 27.00
C 33.43 26.89 34.67 21.88 35.00 18.00 Z"/>
</g>
<g fill="None" fill-opacity="0.0" stroke="#756878" stroke-opacity="1.00" stroke-width="0.3"><path d="
M 171.00 28.00 
C 171.00 27.96 172.00 28.00 172.00 28.00
L 172.00 19.00
C 170.21 21.02 171.00 25.16 171.00 28.00 Z"/>
</g>
<g fill="None" fill-opacity="0.0" stroke="#B9A8AB" stroke-opacity="1.00" stroke-width="0.3"><path d="
M 61.00 29.00 
C 60.76 29.30 61.00 30.00 61.00 30.00
C 64.04 28.16 62.92 32.92 63.00 35.00
C 63.00 34.98 64.00 35.00 64.00 35.00
C 63.60 31.16 64.38 27.56 65.00 24.00
C 63.03 24.99 62.26 27.43 61.00 29.00 Z"/>
</g>
<g fill="None" fill-opacity="0.0" stroke="#948D97" stroke-opacity="1.00" stroke-width="0.3"><path d="
M 117.00 36.00 
C 117.20 33.97 118.34 30.34 119.00 28.00
C 121.93 31.49 118.64 38.14 119.00 41.00
C 119.63 40.10 121.75 39.79 121.00 38.00
C 123.03 37.36 123.06 39.69 123.00 41.00
C 123.16 40.77 124.73 40.75 125.00 41.00
C 124.03 37.32 122.26 32.21 124.00 29.00
C 126.18 30.54 125.29 33.57 127.00 35.00
C 127.66 25.46 120.58 26.54 121.00 35.00
C 121.62 33.07 121.24 23.91 118.31 25.31 C 115.37 26.70 117.00 33.70 117.00 36.00 Z"/>
</g>
<g fill="None" fill-opacity="0.0" stroke="#706876" stroke-opacity="1.00" stroke-width="0.3"><path d="
M 117.00 36.00 
C 117.00 44.83 115.44 53.47 114.00 62.00
C 115.23 59.82 118.10 59.29 119.00 56.00
C 116.98 57.94 117.41 44.15 119.00 42.00
C 118.93 41.51 119.00 41.00 119.00 41.00
C 118.64 38.14 121.93 31.49 119.00 28.00
C 118.34 30.34 117.20 33.97 117.00 36.00 Z"/>
</g>
<g fill="None" fill-opacity="0.0" stroke="#4C4053" stroke-opacity="1.00" stroke-width="0.3"><path d="
M 170.00 41.00 
C 169.65 44.93 170.00 49.05 170.00 53.00
C 170.00 71.09 170.00 88.52 170.00 107.00
C 170.00 112.71 171.36 121.26 169.00 126.00
C 168.61 126.77 167.59 128.50 167.00 129.00
C 168.30 128.41 168.66 128.11 170.00 129.00
C 171.20 126.91 170.18 123.55 172.00 122.00
L 172.00 28.00
C 172.00 28.00 171.00 27.96 171.00 28.00
C 171.00 32.52 170.37 36.79 170.00 41.00 Z"/>
</g>
<g fill="None" fill-opacity="0.0" stroke="#392D3C" stroke-opacity="1.00" stroke-width="0.3"><path d="
M 57.00 34.00 
C 56.84 34.10 59.29 34.08 60.00 33.00
C 60.36 32.19 60.66 30.92 61.00 30.00
C 61.00 30.00 60.76 29.30 61.00 29.00
C 60.84 28.77 59.35 28.77 59.00 29.00
C 58.37 30.48 57.74 32.72 57.00 34.00 Z"/>
</g>
<g fill="None" fill-opacity="0.0" stroke="#F7E7D4" stroke-opacity="1.00" stroke-width="0.3"><path d="
M 61.00 30.00 
C 60.66 30.92 60.36 32.19 60.00 33.00
C 57.19 39.24 53.13 45.03 50.08 51.08 C 47.02 57.12 45.11 64.87 41.00 70.00
C 40.76 70.30 41.00 71.00 41.00 71.00
C 41.77 71.83 42.28 72.59 42.00 74.00
C 48.26 76.38 60.22 74.00 67.00 74.00
C 67.75 72.25 67.28 71.98 67.00 70.00
C 66.10 63.54 63.97 57.81 64.00 51.00
C 63.43 46.26 63.21 40.38 63.00 35.00
C 62.92 32.92 64.04 28.16 61.00 30.00 Z"/>
</g>
<g fill="None" fill-opacity="0.0" stroke="#615561" stroke-opacity="1.00" stroke-width="0.3"><path d="
M 125.00 41.00 
C 127.12 49.05 131.51 56.54 135.00 64.00
C 136.77 66.98 140.18 70.02 142.00 73.00
C 141.66 71.65 140.51 69.60 143.00 70.00
C 146.25 78.60 159.58 80.88 157.00 92.00
C 157.98 89.91 160.30 88.67 160.00 86.00
C 156.31 84.27 154.91 80.53 154.00 77.00
C 145.44 76.47 140.05 66.84 136.32 59.68 C 132.59 52.52 128.30 43.15 127.00 35.00
C 125.29 33.57 126.18 30.54 124.00 29.00
C 122.26 32.21 124.03 37.32 125.00 41.00 Z"/>
</g>
<g fill="None" fill-opacity="0.0" stroke="#726672" stroke-opacity="1.00" stroke-width="0.3"><path d="
M 57.00 34.00 
C 53.81 39.47 49.30 47.33 45.92 52.92 C 42.55 58.52 41.64 69.11 37.00 73.00
C 38.64 72.12 39.57 68.51 41.00 70.00
C 45.11 64.87 47.02 57.12 50.08 51.08 C 53.13 45.03 57.19 39.24 60.00 33.00
C 59.29 34.08 56.84 34.10 57.00 34.00 Z"/>
</g>
<g fill="None" fill-opacity="0.0" stroke="#AD9FA0" stroke-opacity="1.00" stroke-width="0.3"><path d="
M 74.00 43.00 
C 74.21 41.78 74.89 37.69 77.00 38.00
C 76.80 48.56 77.06 58.97 79.00 69.00
C 79.00 68.98 80.00 69.00 80.00 69.00
C 81.08 62.46 78.36 56.95 79.00 51.00
C 83.22 56.64 89.42 50.23 95.00 53.00
C 100.40 46.62 99.20 38.73 91.07 36.93 C 82.94 35.12 79.09 38.87 76.00 33.00
C 73.69 35.93 74.07 39.41 74.00 43.00 Z"/>
</g>
<g fill="None" fill-opacity="0.0" stroke="#928187" stroke-opacity="1.00" stroke-width="0.3"><path d="
M 64.00 51.00 
C 64.01 49.67 64.00 48.33 64.00 47.00
C 64.00 43.00 64.00 39.00 64.00 35.00
C 64.00 35.00 63.00 34.98 63.00 35.00
C 63.21 40.38 63.43 46.26 64.00 51.00 Z"/>
</g>
<g fill="None" fill-opacity="0.0" stroke="#665764" stroke-opacity="1.00" stroke-width="0.3"><path d="
M 74.00 43.00 
C 73.81 52.67 74.96 61.93 77.00 71.00
C 76.89 71.35 78.88 71.75 79.00 69.00
C 77.06 58.97 76.80 48.56 77.00 38.00
C 74.89 37.69 74.21 41.78 74.00 43.00 Z"/>
</g>
<g fill="None" fill-opacity="0.0" stroke="#2A202D" stroke-opacity="1.00" stroke-width="0.3"><path d="
M 119.00 41.00 
C 119.00 41.00 118.93 41.51 119.00 42.00
C 119.17 43.13 120.78 43.40 121.00 44.00
C 121.31 43.42 122.71 42.55 123.00 42.00
C 123.08 41.51 123.00 41.00 123.00 41.00
C 123.06 39.69 123.03 37.36 121.00 38.00
C 121.75 39.79 119.63 40.10 119.00 41.00 Z"/>
</g>
<g fill="None" fill-opacity="0.0" stroke="#AFA2A2" stroke-opacity="1.00" stroke-width="0.3"><path d="
M 169.00 53.00 
C 169.00 52.98 170.00 53.00 170.00 53.00
C 170.00 49.05 169.65 44.93 170.00 41.00
C 164.90 43.76 155.57 39.86 149.00 39.00
C 138.70 47.71 168.22 56.73 167.00 46.00
C 169.91 46.94 168.91 50.65 169.00 53.00 Z"/>
</g>
<g fill="None" fill-opacity="0.0" stroke="#F6E7D5" stroke-opacity="1.00" stroke-width="0.3"><path d="
M 123.00 42.00 
C 122.07 47.68 121.28 53.82 120.00 59.00
C 118.68 64.32 118.18 69.90 116.00 75.00
C 116.23 74.92 119.67 76.94 120.00 77.00
C 123.27 77.00 127.86 77.71 131.00 77.00 C 134.14 76.29 140.39 78.68 143.00 77.00
C 141.07 72.41 137.17 68.64 135.00 64.00
C 131.51 56.54 127.12 49.05 125.00 41.00
C 124.73 40.75 123.16 40.77 123.00 41.00
C 123.00 41.00 123.08 41.51 123.00 42.00 Z"/>
</g>
<g fill="None" fill-opacity="0.0" stroke="#A397AC" stroke-opacity="1.00" stroke-width="0.3"><path d="
M 119.00 56.00 
C 119.13 55.54 118.94 54.49 119.00 54.00
C 119.35 51.07 119.60 46.62 121.00 44.00
C 120.78 43.40 119.17 43.13 119.00 42.00
C 117.41 44.15 116.98 57.94 119.00 56.00 Z"/>
</g>
<g fill="None" fill-opacity="0.0" stroke="#7E6D77" stroke-opacity="1.00" stroke-width="0.3"><path d="
M 121.00 44.00 
C 119.60 46.62 119.35 51.07 119.00 54.00
C 119.07 55.09 120.06 57.21 120.00 59.00
C 121.28 53.82 122.07 47.68 123.00 42.00
C 122.71 42.55 121.31 43.42 121.00 44.00 Z"/>
</g>
<g fill="None" fill-opacity="0.0" stroke="#554658" stroke-opacity="1.00" stroke-width="0.3"><path d="
M 64.00 51.00 
C 63.97 57.81 66.10 63.54 67.00 70.00
C 67.46 71.46 70.15 72.40 68.00 74.00
C 69.02 74.10 71.46 73.96 73.00 75.00
C 73.11 80.04 74.28 84.09 73.00 89.00
C 74.38 85.81 77.61 92.33 78.00 93.00
C 82.05 99.96 89.73 104.64 88.00 92.00
C 93.01 93.00 98.57 107.70 104.25 104.20 C 109.92 100.70 108.85 87.22 112.00 82.00
C 112.08 81.51 112.00 81.00 112.00 81.00
C 107.26 79.10 112.15 77.23 115.00 77.00
C 114.04 77.54 116.26 74.40 116.00 75.00
C 118.18 69.90 118.68 64.32 120.00 59.00
C 120.06 57.21 119.07 55.09 119.00 54.00
C 118.94 54.49 119.13 55.54 119.00 56.00
C 118.10 59.29 115.23 59.82 114.00 62.00
C 112.08 68.42 112.81 76.94 106.00 79.00
C 112.29 84.05 104.30 92.52 103.00 99.00
C 95.09 95.43 89.53 84.58 83.00 81.00
C 83.19 83.65 82.74 86.36 83.00 89.00
C 83.16 90.63 84.94 93.67 84.00 96.00
C 82.44 94.34 80.92 92.22 80.00 90.00
C 76.93 85.50 72.83 80.59 75.00 75.00
C 68.16 70.76 68.09 59.65 67.00 52.00
C 66.67 50.84 64.03 47.11 64.00 47.00
C 64.00 48.33 64.01 49.67 64.00 51.00
M 117.00 63.00 
C 117.50 69.91 110.98 64.36 117.00 63.00 Z"/>
</g>
<g fill="None" fill-opacity="0.0" stroke="#423948" stroke-opacity="1.00" stroke-width="0.3"><path d="
M 0.00 94.00 
L 0.00 100.00
C -0.36 97.85 3.88 95.45 2.97 92.97 C 2.07 90.50 7.29 86.73 7.00 88.00
C 6.79 86.94 6.18 86.19 6.00 85.00
C 4.62 75.98 4.87 62.59 7.00 54.00
C 6.66 52.44 7.75 49.83 6.00 49.00
C 3.51 56.66 1.98 64.66 2.00 73.00 C 2.02 81.34 5.74 88.14 0.00 94.00 Z"/>
</g>
<g fill="None" fill-opacity="0.0" stroke="#6E6173" stroke-opacity="1.00" stroke-width="0.3"><path d="
M 161.00 100.00 
C 159.35 106.10 158.54 112.12 156.00 118.00
C 156.90 117.22 158.22 117.55 159.00 117.00
C 163.61 104.51 168.74 91.27 168.00 77.00
C 170.98 85.93 167.02 98.15 170.00 107.00
C 170.00 88.52 170.00 71.09 170.00 53.00
C 170.00 53.00 169.00 52.98 169.00 53.00
C 169.56 67.67 164.84 85.83 161.00 100.00 Z"/>
</g>
<g fill="None" fill-opacity="0.0" stroke="#1A0827" stroke-opacity="1.00" stroke-width="0.3"><path d="
M 117.00 63.00 
C 110.98 64.36 117.50 69.91 117.00 63.00 Z"/>
</g>
<g fill="None" fill-opacity="0.0" stroke="#A28E94" stroke-opacity="1.00" stroke-width="0.3"><path d="
M 143.00 77.00 
C 144.79 75.85 142.80 74.30 142.00 73.00
C 140.18 70.02 136.77 66.98 135.00 64.00
C 137.17 68.64 141.07 72.41 143.00 77.00 Z"/>
</g>
<g fill="None" fill-opacity="0.0" stroke="#3D2A42" stroke-opacity="1.00" stroke-width="0.3"><path d="
M 37.00 73.00 
C 33.84 74.69 28.95 74.00 25.00 74.00
C 23.76 74.42 21.27 76.54 23.00 78.00
C 22.92 77.96 25.23 79.06 25.00 79.00
C 28.00 79.00 31.00 79.00 34.00 79.00
C 29.17 92.77 30.66 105.92 37.00 119.00
C 31.09 113.81 25.01 109.08 22.00 102.00
C 24.00 108.30 22.47 117.62 26.02 124.98 C 29.58 132.33 31.33 138.46 29.00 147.00 C 26.67 155.54 30.43 164.31 32.00 172.00
L 37.00 172.00
C 32.87 162.04 31.63 149.83 34.00 139.00
C 35.25 139.30 35.71 140.83 37.00 141.00
C 39.57 142.52 40.32 143.20 42.70 145.30 C 45.07 147.40 49.43 143.90 48.00 144.00
C 41.96 141.05 34.96 135.19 32.00 129.00
C 30.66 126.20 29.66 123.27 30.00 120.00
C 32.36 121.74 34.51 123.55 37.00 125.00
C 37.89 125.61 38.96 126.77 40.00 127.00
C 40.48 127.11 41.60 126.80 42.00 127.00
C 43.00 126.99 44.00 127.01 45.00 127.00
C 45.59 124.73 44.15 123.10 44.00 121.00
C 43.54 120.39 43.38 119.61 43.00 119.00
C 40.95 115.70 38.48 111.36 37.08 107.92 C 35.67 104.48 33.57 96.39 35.00 93.00 C 36.43 89.61 35.87 80.36 39.00 79.00
C 40.79 77.55 43.55 77.99 46.00 78.00
C 47.33 78.01 48.67 78.00 50.00 78.00
C 54.88 77.33 63.66 73.03 68.74 78.26 C 73.82 83.49 70.32 108.28 60.00 107.00
C 57.96 107.65 56.37 106.54 55.00 106.00
C 52.23 104.92 50.88 103.35 49.00 101.00
C 47.75 99.43 46.37 98.16 46.00 96.00
C 45.92 95.51 46.00 94.50 46.00 94.00
C 45.63 92.78 45.10 91.75 45.00 90.00
C 44.65 88.03 44.39 83.09 42.00 82.00
C 42.32 85.63 41.57 89.38 42.00 93.00
C 43.80 100.49 47.46 110.76 57.02 110.98 C 66.59 111.19 72.20 101.15 73.00 93.00
C 73.13 91.68 72.94 90.32 73.00 89.00
C 74.28 84.09 73.11 80.04 73.00 75.00
C 71.46 73.96 69.02 74.10 68.00 74.00
C 67.50 73.95 67.00 74.00 67.00 74.00
C 60.22 74.00 48.26 76.38 42.00 74.00
C 40.25 73.34 39.57 73.00 41.00 71.00
C 41.00 71.00 40.76 70.30 41.00 70.00
C 39.57 68.51 38.64 72.12 37.00 73.00 Z"/>
</g>
<g fill="None" fill-opacity="0.0" stroke="#79767D" stroke-opacity="1.00" stroke-width="0.3"><path d="
M 77.00 71.00 
C 76.62 73.85 78.59 75.82 80.00 78.00
C 81.96 75.98 80.74 71.55 80.00 69.00
C 80.00 69.00 79.00 68.98 79.00 69.00
C 78.88 71.75 76.89 71.35 77.00 71.00 Z"/>
</g>
<g fill="None" fill-opacity="0.0" stroke="#998690" stroke-opacity="1.00" stroke-width="0.3"><path d="
M 67.00 74.00 
C 67.00 74.00 67.50 73.95 68.00 74.00
C 70.15 72.40 67.46 71.46 67.00 70.00
C 67.28 71.98 67.75 72.25 67.00 74.00 Z"/>
</g>
<g fill="None" fill-opacity="0.0" stroke="#3B2338" stroke-opacity="1.00" stroke-width="0.3"><path d="
M 142.00 73.00 
C 142.80 74.30 144.79 75.85 143.00 77.00
C 140.39 78.68 134.14 76.29 131.00 77.00 C 127.86 77.71 123.27 77.00 120.00 77.00
C 118.35 77.00 116.64 76.87 115.00 77.00
C 112.15 77.23 107.26 79.10 112.00 81.00
C 113.30 80.55 115.62 80.99 117.00 81.00
C 119.33 81.02 121.67 80.99 124.00 81.00
C 124.00 83.33 124.00 85.67 124.00 88.00
C 124.21 89.74 124.82 92.66 125.00 95.00
C 125.59 102.76 128.44 113.66 137.08 115.92 C 145.72 118.19 153.95 108.15 156.00 101.00
C 156.85 98.06 156.94 95.14 157.00 92.00
C 159.58 80.88 146.25 78.60 143.00 70.00
C 140.51 69.60 141.66 71.65 142.00 73.00
M 151.00 102.00 
C 150.66 103.06 150.57 103.96 150.00 105.00
C 148.81 107.17 146.17 109.91 144.00 111.00
C 142.53 111.74 141.70 111.91 140.00 112.00
C 134.59 113.07 129.20 107.27 129.00 101.00
C 128.98 100.50 129.00 99.50 129.00 99.00
C 125.95 94.50 127.36 89.71 128.00 85.00
C 128.00 84.15 127.57 81.71 128.00 81.00
C 130.57 78.33 143.08 79.65 147.00 80.00
C 157.84 81.15 153.75 96.78 151.00 102.00 Z"/>
</g>
<g fill="None" fill-opacity="0.0" stroke="#CCB8C7" stroke-opacity="1.00" stroke-width="0.3"><path d="
M 42.00 74.00 
C 42.28 72.59 41.77 71.83 41.00 71.00
C 39.57 73.00 40.25 73.34 42.00 74.00 Z"/>
</g>
<g fill="None" fill-opacity="0.0" stroke="#837D89" stroke-opacity="1.00" stroke-width="0.3"><path d="
M 25.00 79.00 
C 25.23 79.06 22.92 77.96 23.00 78.00
C 21.72 77.40 20.00 74.96 22.00 74.00
C 16.59 75.69 22.75 78.66 25.00 79.00 Z"/>
</g>
<g fill="None" fill-opacity="0.0" stroke="#625D67" stroke-opacity="1.00" stroke-width="0.3"><path d="
M 23.00 78.00 
C 21.27 76.54 23.76 74.42 25.00 74.00
C 24.17 74.00 22.79 73.75 22.00 74.00
C 20.00 74.96 21.72 77.40 23.00 78.00 Z"/>
</g>
<g fill="None" fill-opacity="0.0" stroke="#B5A0B1" stroke-opacity="1.00" stroke-width="0.3"><path d="
M 115.00 77.00 
C 116.64 76.87 118.35 77.00 120.00 77.00
C 119.67 76.94 116.23 74.92 116.00 75.00
C 116.26 74.40 114.04 77.54 115.00 77.00 Z"/>
</g>
<g fill="None" fill-opacity="0.0" stroke="#4C2B26" stroke-opacity="1.00" stroke-width="0.3"><path d="
M 50.00 78.00 
C 52.00 78.00 54.00 78.00 56.00 78.00
C 58.70 78.00 64.63 76.84 67.00 78.00
C 69.37 79.16 68.76 80.71 69.00 83.00
C 69.65 89.14 68.82 96.72 66.00 102.00
C 64.87 104.12 63.26 105.56 61.00 106.00
C 60.52 106.09 60.00 106.00 60.00 106.00
C 59.75 106.25 60.00 107.00 60.00 107.00
C 70.32 108.28 73.82 83.49 68.74 78.26 C 63.66 73.03 54.88 77.33 50.00 78.00 Z"/>
</g>
<g fill="None" fill-opacity="0.0" stroke="#ACA8AD" stroke-opacity="1.00" stroke-width="0.3"><path d="
M 159.00 117.00 
C 156.72 123.18 154.93 129.46 151.00 135.00
C 154.53 134.78 157.72 133.22 161.00 132.00
C 162.62 131.02 167.95 127.62 169.00 126.00
C 171.36 121.26 170.00 112.71 170.00 107.00
C 167.02 98.15 170.98 85.93 168.00 77.00
C 168.74 91.27 163.61 104.51 159.00 117.00 Z"/>
</g>
<g fill="None" fill-opacity="0.0" stroke="#7A6463" stroke-opacity="1.00" stroke-width="0.3"><path d="
M 39.00 79.00 
C 39.91 78.60 41.99 79.00 43.00 79.00
C 43.39 79.00 45.76 79.26 46.00 79.00
C 46.25 78.73 46.00 78.00 46.00 78.00
C 43.55 77.99 40.79 77.55 39.00 79.00 Z"/>
</g>
<g fill="None" fill-opacity="0.0" stroke="#937248" stroke-opacity="1.00" stroke-width="0.3"><path d="
M 46.00 79.00 
C 49.50 79.32 53.28 78.26 56.00 78.00
C 54.00 78.00 52.00 78.00 50.00 78.00
C 48.67 78.00 47.33 78.01 46.00 78.00
C 46.00 78.00 46.25 78.73 46.00 79.00 Z"/>
</g>
<g fill="None" fill-opacity="0.0" stroke="#F8CF5C" stroke-opacity="1.00" stroke-width="0.3"><path d="
M 46.00 79.00 
C 46.00 84.00 46.00 89.00 46.00 94.00
C 46.00 94.50 45.92 95.51 46.00 96.00
C 46.79 97.38 48.14 99.67 49.00 101.00
C 50.88 103.35 52.23 104.92 55.00 106.00
C 56.56 106.27 58.41 106.00 60.00 106.00
C 60.00 106.00 60.52 106.09 61.00 106.00
C 62.13 105.28 65.20 103.17 66.00 102.00
C 68.82 96.72 69.65 89.14 69.00 83.00
C 68.92 82.56 67.68 78.45 67.00 78.00
C 64.63 76.84 58.70 78.00 56.00 78.00
C 53.28 78.26 49.50 79.32 46.00 79.00 Z"/>
</g>
<g fill="None" fill-opacity="0.0" stroke="#8C6944" stroke-opacity="1.00" stroke-width="0.3"><path d="
M 69.00 83.00 
C 68.76 80.71 69.37 79.16 67.00 78.00
C 67.68 78.45 68.92 82.56 69.00 83.00 Z"/>
</g>
<g fill="None" fill-opacity="0.0" stroke="#FBEBD6" stroke-opacity="1.00" stroke-width="0.3"><path d="
M 43.00 119.00 
C 44.70 121.09 49.18 122.67 46.67 126.67 C 44.15 130.67 41.99 128.89 40.00 127.00
C 38.96 126.77 37.89 125.61 37.00 125.00
C 39.63 125.40 32.29 128.05 32.00 129.00
C 34.96 135.19 41.96 141.05 48.00 144.00
C 51.63 145.78 54.86 146.47 58.00 149.00
C 58.44 149.16 59.57 148.83 60.00 149.00
C 66.02 151.36 73.00 154.93 79.00 156.00
C 88.50 155.68 97.77 156.03 107.00 155.00
C 110.53 154.61 113.61 153.79 117.00 153.00
C 120.14 151.58 123.45 148.38 128.00 150.00
C 130.39 158.44 116.05 159.49 118.00 167.00
C 119.90 167.06 122.12 167.27 124.00 167.00
C 126.50 166.27 130.84 165.35 133.00 164.00
C 135.98 161.48 134.70 156.47 136.32 153.32 C 137.95 150.18 140.21 148.07 143.00 146.00
C 145.29 144.30 147.49 143.03 150.00 142.00
C 152.87 142.31 144.89 138.88 145.00 139.00
C 142.13 135.84 148.59 132.30 150.25 129.25 C 151.91 126.20 154.54 121.39 156.00 118.00
C 158.54 112.12 159.35 106.10 161.00 100.00
C 161.46 97.90 160.21 96.29 158.00 97.00
C 158.40 98.75 156.65 99.89 156.00 101.00
C 153.95 108.15 145.72 118.19 137.08 115.92 C 128.44 113.66 125.59 102.76 125.00 95.00
C 124.69 93.10 124.10 90.50 124.00 88.00
C 124.00 85.67 124.00 83.33 124.00 81.00
C 121.67 80.99 119.33 81.02 117.00 81.00
C 115.77 81.16 113.96 82.63 112.00 82.00
C 108.85 87.22 109.92 100.70 104.25 104.20 C 98.57 107.70 93.01 93.00 88.00 92.00
C 89.73 104.64 82.05 99.96 78.00 93.00
C 77.08 91.74 75.17 90.94 75.00 89.00
C 73.02 89.47 75.11 92.60 73.00 93.00
C 72.20 101.15 66.59 111.19 57.02 110.98 C 47.46 110.76 43.80 100.49 42.00 93.00
C 41.27 89.96 39.81 84.96 42.00 82.00
C 41.81 81.91 42.00 81.00 42.00 81.00
C 42.02 80.89 43.03 78.99 43.00 79.00
C 41.99 79.00 39.91 78.60 39.00 79.00
C 35.87 80.36 36.43 89.61 35.00 93.00 C 33.57 96.39 35.67 104.48 37.08 107.92 C 38.48 111.36 40.95 115.70 43.00 119.00 Z"/>
</g>
<g fill="None" fill-opacity="0.0" stroke="#BEA363" stroke-opacity="1.00" stroke-width="0.3"><path d="
M 42.00 81.00 
C 42.82 80.29 43.92 79.97 45.00 80.00
C 45.00 83.33 45.00 86.67 45.00 90.00
C 45.10 91.75 45.63 92.78 46.00 94.00
C 46.00 89.00 46.00 84.00 46.00 79.00
C 45.76 79.26 43.39 79.00 43.00 79.00
C 43.03 78.99 42.02 80.89 42.00 81.00 Z"/>
</g>
<g fill="None" fill-opacity="0.0" stroke="#624A2E" stroke-opacity="1.00" stroke-width="0.3"><path d="
M 42.00 81.00 
C 42.00 81.00 41.81 81.91 42.00 82.00
C 44.39 83.09 44.65 88.03 45.00 90.00
C 45.00 86.67 45.00 83.33 45.00 80.00
C 43.92 79.97 42.82 80.29 42.00 81.00 Z"/>
</g>
<g fill="None" fill-opacity="0.0" stroke="#927445" stroke-opacity="1.00" stroke-width="0.3"><path d="
M 128.00 81.00 
C 128.13 80.78 129.00 81.00 129.00 81.00
C 135.00 81.00 141.00 81.00 147.00 81.00
C 146.75 80.75 147.00 80.00 147.00 80.00
C 143.08 79.65 130.57 78.33 128.00 81.00 Z"/>
</g>
<g fill="None" fill-opacity="0.0" stroke="#5F3F28" stroke-opacity="1.00" stroke-width="0.3"><path d="
M 147.00 81.00 
C 147.50 81.00 148.00 81.00 148.00 81.00
C 150.38 82.16 152.46 84.58 153.00 87.00
C 154.15 92.19 152.46 97.41 151.00 102.00
C 153.75 96.78 157.84 81.15 147.00 80.00
C 147.00 80.00 146.75 80.75 147.00 81.00 Z"/>
</g>
<g fill="None" fill-opacity="0.0" stroke="#AE9BA5" stroke-opacity="1.00" stroke-width="0.3"><path d="
M 112.00 82.00 
C 113.96 82.63 115.77 81.16 117.00 81.00
C 115.62 80.99 113.30 80.55 112.00 81.00
C 112.00 81.00 112.08 81.51 112.00 82.00 Z"/>
</g>
<g fill="None" fill-opacity="0.0" stroke="#BC9C60" stroke-opacity="1.00" stroke-width="0.3"><path d="
M 128.00 85.00 
C 128.00 88.60 127.00 94.30 129.00 97.00
C 129.00 91.74 129.47 86.24 129.00 81.00
C 129.00 81.00 128.13 80.78 128.00 81.00
C 127.57 81.71 128.00 84.15 128.00 85.00 Z"/>
</g>
<g fill="None" fill-opacity="0.0" stroke="#F9D05B" stroke-opacity="1.00" stroke-width="0.3"><path d="
M 129.00 97.00 
C 129.00 97.50 129.00 98.00 129.00 98.00
C 130.47 99.81 130.33 101.72 131.00 104.00
C 131.23 104.79 131.67 106.30 132.00 107.00
C 132.39 107.61 136.50 111.78 137.00 112.00
C 137.81 112.21 139.17 112.04 140.00 112.00
C 141.70 111.91 142.53 111.74 144.00 111.00
C 145.30 110.19 149.12 106.22 150.00 105.00
C 150.57 103.96 150.66 103.06 151.00 102.00
C 152.46 97.41 154.15 92.19 153.00 87.00
C 152.43 85.14 149.21 82.73 148.00 81.00
C 148.00 81.00 147.50 81.00 147.00 81.00
C 141.00 81.00 135.00 81.00 129.00 81.00
C 129.47 86.24 129.00 91.74 129.00 97.00 Z"/>
</g>
<g fill="None" fill-opacity="0.0" stroke="#9C794E" stroke-opacity="1.00" stroke-width="0.3"><path d="
M 153.00 87.00 
C 152.46 84.58 150.38 82.16 148.00 81.00
C 149.21 82.73 152.43 85.14 153.00 87.00 Z"/>
</g>
<g fill="None" fill-opacity="0.0" stroke="#AC96A4" stroke-opacity="1.00" stroke-width="0.3"><path d="
M 42.00 93.00 
C 41.57 89.38 42.32 85.63 42.00 82.00
C 39.81 84.96 41.27 89.96 42.00 93.00 Z"/>
</g>
<g fill="None" fill-opacity="0.0" stroke="#6D6274" stroke-opacity="1.00" stroke-width="0.3"><path d="
M 7.00 88.00 
C 8.41 94.98 9.38 99.54 11.00 105.00
C 9.78 105.93 7.57 105.83 8.00 108.00
C 9.31 107.46 10.44 106.59 12.00 107.00
C 12.00 103.67 12.00 100.33 12.00 97.00
C 8.06 95.37 6.70 88.61 6.00 85.00
C 6.18 86.19 6.79 86.94 7.00 88.00 Z"/>
</g>
<g fill="None" fill-opacity="0.0" stroke="#4E2F24" stroke-opacity="1.00" stroke-width="0.3"><path d="
M 129.00 99.00 
C 129.00 98.50 129.00 98.00 129.00 98.00
C 129.00 98.00 129.00 97.50 129.00 97.00
C 127.00 94.30 128.00 88.60 128.00 85.00
C 127.36 89.71 125.95 94.50 129.00 99.00 Z"/>
</g>
<g fill="None" fill-opacity="0.0" stroke="#2C1936" stroke-opacity="1.00" stroke-width="0.3"><path d="
M 0.00 100.00 
L 0.00 172.00
L 7.00 172.00
C 2.18 161.51 1.76 149.86 2.00 138.00
C 2.05 135.37 2.60 132.98 3.00 131.00
C 3.79 123.94 5.45 114.59 8.00 108.00
C 7.57 105.83 9.78 105.93 11.00 105.00
C 9.38 99.54 8.41 94.98 7.00 88.00
C 7.29 86.73 2.07 90.50 2.97 92.97 C 3.88 95.45 -0.36 97.85 0.00 100.00 Z"/>
</g>
<g fill="None" fill-opacity="0.0" stroke="#A5959B" stroke-opacity="1.00" stroke-width="0.3"><path d="
M 73.00 89.00 
C 72.94 90.32 73.13 91.68 73.00 93.00
C 75.11 92.60 73.02 89.47 75.00 89.00
C 75.17 90.94 77.08 91.74 78.00 93.00
C 77.61 92.33 74.38 85.81 73.00 89.00 Z"/>
</g>
<g fill="None" fill-opacity="0.0" stroke="#8F7B84" stroke-opacity="1.00" stroke-width="0.3"><path d="
M 125.00 95.00 
C 124.82 92.66 124.21 89.74 124.00 88.00
C 124.10 90.50 124.69 93.10 125.00 95.00 Z"/>
</g>
<g fill="None" fill-opacity="0.0" stroke="#A193A6" stroke-opacity="1.00" stroke-width="0.3"><path d="
M 80.00 90.00 
C 80.92 92.22 82.44 94.34 84.00 96.00
C 84.94 93.67 83.16 90.63 83.00 89.00
C 82.21 91.08 82.15 91.23 80.00 90.00 Z"/>
</g>
<g fill="None" fill-opacity="0.0" stroke="#9D7A4B" stroke-opacity="1.00" stroke-width="0.3"><path d="
M 49.00 101.00 
C 48.14 99.67 46.79 97.38 46.00 96.00
C 46.37 98.16 47.75 99.43 49.00 101.00 Z"/>
</g>
<g fill="None" fill-opacity="0.0" stroke="#BA9B5A" stroke-opacity="1.00" stroke-width="0.3"><path d="
M 129.00 99.00 
C 129.00 99.50 128.98 100.50 129.00 101.00
C 129.19 101.77 130.64 103.27 131.00 104.00
C 130.33 101.72 130.47 99.81 129.00 98.00
C 129.00 98.00 129.00 98.50 129.00 99.00 Z"/>
</g>
<g fill="None" fill-opacity="0.0" stroke="#563523" stroke-opacity="1.00" stroke-width="0.3"><path d="
M 140.00 112.00 
C 139.17 112.04 137.81 112.21 137.00 112.00
C 135.24 111.55 132.72 108.51 132.00 107.00
C 131.67 106.30 131.23 104.79 131.00 104.00
C 130.64 103.27 129.19 101.77 129.00 101.00
C 129.20 107.27 134.59 113.07 140.00 112.00 Z"/>
</g>
<g fill="None" fill-opacity="0.0" stroke="#795934" stroke-opacity="1.00" stroke-width="0.3"><path d="
M 61.00 106.00 
C 63.26 105.56 64.87 104.12 66.00 102.00
C 65.20 103.17 62.13 105.28 61.00 106.00 Z"/>
</g>
<g fill="None" fill-opacity="0.0" stroke="#997C46" stroke-opacity="1.00" stroke-width="0.3"><path d="
M 144.00 111.00 
C 146.17 109.91 148.81 107.17 150.00 105.00
C 149.12 106.22 145.30 110.19 144.00 111.00 Z"/>
</g>
<g fill="None" fill-opacity="0.0" stroke="#8A6D43" stroke-opacity="1.00" stroke-width="0.3"><path d="
M 60.00 107.00 
C 60.00 107.00 59.75 106.25 60.00 106.00
C 58.41 106.00 56.56 106.27 55.00 106.00
C 56.37 106.54 57.96 107.65 60.00 107.00 Z"/>
</g>
<g fill="None" fill-opacity="0.0" stroke="#957641" stroke-opacity="1.00" stroke-width="0.3"><path d="
M 137.00 112.00 
C 136.50 111.78 132.39 107.61 132.00 107.00
C 132.72 108.51 135.24 111.55 137.00 112.00 Z"/>
</g>
<g fill="None" fill-opacity="0.0" stroke="#2E1A37" stroke-opacity="1.00" stroke-width="0.3"><path d="
M 156.00 118.00 
C 154.54 121.39 151.91 126.20 150.25 129.25 C 148.59 132.30 142.13 135.84 145.00 139.00
C 146.13 139.65 150.66 139.18 152.00 139.00
C 153.18 138.84 155.47 137.37 157.00 137.00
C 157.46 139.04 154.42 145.05 153.00 141.00
C 151.76 140.96 151.09 141.55 150.00 142.00
C 147.49 143.03 145.29 144.30 143.00 146.00
C 137.34 150.93 138.19 160.75 133.00 164.00
C 130.84 165.35 126.50 166.27 124.00 167.00
C 120.40 168.05 114.88 169.00 111.00 167.00
C 111.67 165.80 112.64 164.42 114.00 164.00
C 115.44 162.82 117.48 162.13 119.00 161.00
C 120.12 159.97 121.11 158.18 122.00 157.00
C 122.03 155.76 119.91 155.28 120.00 154.00
C 116.27 155.57 114.90 159.48 110.00 158.00
C 109.86 156.25 108.48 156.40 107.00 155.00
C 97.77 156.03 88.50 155.68 79.00 156.00
C 76.08 156.10 72.00 156.08 70.00 159.00
C 69.60 164.06 65.32 167.72 63.00 172.00
L 73.00 172.00
C 77.25 167.62 91.32 159.10 93.00 169.00
C 91.17 169.27 88.70 170.02 88.00 172.00
L 95.00 172.00
C 97.27 169.89 97.15 166.94 97.00 164.00
C 99.96 166.21 102.90 169.02 105.00 172.00
L 113.00 172.00
C 115.70 170.47 120.57 170.69 124.00 171.00
C 133.79 168.18 139.97 163.24 147.75 156.75 C 155.54 150.27 157.70 139.62 165.00 135.00
C 166.84 133.36 168.03 129.83 171.00 130.00
C 171.67 140.83 169.67 152.99 172.00 163.00
L 172.00 122.00
C 170.18 123.55 171.20 126.91 170.00 129.00
C 168.66 128.11 168.30 128.41 167.00 129.00
C 165.01 129.90 163.07 131.01 161.00 132.00
C 157.72 133.22 154.53 134.78 151.00 135.00
C 154.93 129.46 156.72 123.18 159.00 117.00
C 158.22 117.55 156.90 117.22 156.00 118.00 Z"/>
</g>
<g fill="None" fill-opacity="0.0" stroke="#CCBABA" stroke-opacity="1.00" stroke-width="0.3"><path d="
M 44.00 121.00 
C 46.10 123.76 46.94 129.50 42.00 127.00
C 41.60 126.80 40.48 127.11 40.00 127.00
C 41.99 128.89 44.15 130.67 46.67 126.67 C 49.18 122.67 44.70 121.09 43.00 119.00
C 43.38 119.61 43.54 120.39 44.00 121.00 Z"/>
</g>
<g fill="None" fill-opacity="0.0" stroke="#E1CFCF" stroke-opacity="1.00" stroke-width="0.3"><path d="
M 32.00 129.00 
C 32.29 128.05 39.63 125.40 37.00 125.00
C 34.51 123.55 32.36 121.74 30.00 120.00
C 29.66 123.27 30.66 126.20 32.00 129.00 Z"/>
</g>
<g fill="None" fill-opacity="0.0" stroke="#6C5860" stroke-opacity="1.00" stroke-width="0.3"><path d="
M 42.00 127.00 
C 46.94 129.50 46.10 123.76 44.00 121.00
C 44.15 123.10 45.59 124.73 45.00 127.00
C 44.00 127.01 43.00 126.99 42.00 127.00 Z"/>
</g>
<g fill="None" fill-opacity="0.0" stroke="#897D8E" stroke-opacity="1.00" stroke-width="0.3"><path d="
M 161.00 132.00 
C 163.07 131.01 165.01 129.90 167.00 129.00
C 167.59 128.50 168.61 126.77 169.00 126.00
C 167.95 127.62 162.62 131.02 161.00 132.00 Z"/>
</g>
<g fill="None" fill-opacity="0.0" stroke="#685B6E" stroke-opacity="1.00" stroke-width="0.3"><path d="
M 165.00 135.00 
C 166.65 133.96 168.48 133.25 170.00 132.00
C 168.28 145.50 175.00 162.37 163.00 172.00
L 164.00 172.00
C 165.83 170.21 168.91 164.00 171.00 168.00
C 171.11 168.21 172.00 168.00 172.00 168.00
L 172.00 163.00
C 169.67 152.99 171.67 140.83 171.00 130.00
C 168.03 129.83 166.84 133.36 165.00 135.00 Z"/>
</g>
<g fill="None" fill-opacity="0.0" stroke="#64576A" stroke-opacity="1.00" stroke-width="0.3"><path d="
M 2.00 138.00 
C 2.15 136.46 2.76 133.18 3.00 131.00
C 2.60 132.98 2.05 135.37 2.00 138.00 Z"/>
</g>
<g fill="None" fill-opacity="0.0" stroke="#ACAAAD" stroke-opacity="1.00" stroke-width="0.3"><path d="
M 165.00 135.00 
C 157.70 139.62 155.54 150.27 147.75 156.75 C 139.97 163.24 133.79 168.18 124.00 171.00
C 123.87 171.04 124.00 172.00 124.00 172.00
L 163.00 172.00
C 175.00 162.37 168.28 145.50 170.00 132.00
C 168.48 133.25 166.65 133.96 165.00 135.00 Z"/>
</g>
<g fill="None" fill-opacity="0.0" stroke="#624D6C" stroke-opacity="1.00" stroke-width="0.3"><path d="
M 152.00 139.00 
C 152.98 139.27 154.62 139.62 153.00 141.00
C 154.42 145.05 157.46 139.04 157.00 137.00
C 155.47 137.37 153.18 138.84 152.00 139.00 Z"/>
</g>
<g fill="None" fill-opacity="0.0" stroke="#A9989C" stroke-opacity="1.00" stroke-width="0.3"><path d="
M 37.00 172.00 
L 48.00 172.00
C 42.95 167.31 42.03 161.36 41.00 155.00
C 40.35 151.02 40.85 144.03 37.00 141.00
C 35.71 140.83 35.25 139.30 34.00 139.00
C 31.63 149.83 32.87 162.04 37.00 172.00 Z"/>
</g>
<g fill="None" fill-opacity="0.0" stroke="#8B7886" stroke-opacity="1.00" stroke-width="0.3"><path d="
M 150.00 142.00 
C 151.09 141.55 151.76 140.96 153.00 141.00
C 154.62 139.62 152.98 139.27 152.00 139.00
C 150.66 139.18 146.13 139.65 145.00 139.00
C 144.89 138.88 152.87 142.31 150.00 142.00 Z"/>
</g>
<g fill="None" fill-opacity="0.0" stroke="#5A475A" stroke-opacity="1.00" stroke-width="0.3"><path d="
M 41.00 155.00 
C 41.40 152.25 42.22 153.46 43.00 152.00
C 43.69 150.70 42.48 148.39 43.00 147.00
C 52.98 147.90 61.07 154.55 71.00 156.00
C 71.53 157.28 70.03 157.86 70.00 159.00
C 72.00 156.08 76.08 156.10 79.00 156.00
C 73.00 154.93 66.02 151.36 60.00 149.00
C 62.98 152.01 53.79 151.11 54.00 148.00
C 55.56 147.59 56.69 148.46 58.00 149.00
C 54.86 146.47 51.63 145.78 48.00 144.00
C 49.43 143.90 45.07 147.40 42.70 145.30 C 40.32 143.20 39.57 142.52 37.00 141.00
C 40.85 144.03 40.35 151.02 41.00 155.00 Z"/>
</g>
<g fill="None" fill-opacity="0.0" stroke="#8E7A86" stroke-opacity="1.00" stroke-width="0.3"><path d="
M 133.00 164.00 
C 138.19 160.75 137.34 150.93 143.00 146.00
C 140.21 148.07 137.95 150.18 136.32 153.32 C 134.70 156.47 135.98 161.48 133.00 164.00 Z"/>
</g>
<g fill="None" fill-opacity="0.0" stroke="#AE9D9F" stroke-opacity="1.00" stroke-width="0.3"><path d="
M 43.00 152.00 
C 43.29 159.32 49.61 165.96 53.00 172.00
L 63.00 172.00
C 65.32 167.72 69.60 164.06 70.00 159.00
C 70.03 157.86 71.53 157.28 71.00 156.00
C 61.07 154.55 52.98 147.90 43.00 147.00
C 42.48 148.39 43.69 150.70 43.00 152.00 Z"/>
</g>
<g fill="None" fill-opacity="0.0" stroke="#261127" stroke-opacity="1.00" stroke-width="0.3"><path d="
M 60.00 149.00 
C 59.57 148.83 58.44 149.16 58.00 149.00
C 56.69 148.46 55.56 147.59 54.00 148.00
C 53.79 151.11 62.98 152.01 60.00 149.00 Z"/>
</g>
<g fill="None" fill-opacity="0.0" stroke="#D5C3C2" stroke-opacity="1.00" stroke-width="0.3"><path d="
M 117.00 153.00 
C 118.69 152.60 120.28 152.35 122.00 152.00
C 123.14 151.77 125.20 150.15 127.00 151.00
C 127.01 155.46 121.93 158.27 119.00 161.00
C 117.48 162.13 115.44 162.82 114.00 164.00
C 113.25 164.86 112.51 166.01 112.00 167.00
C 114.00 167.00 116.00 167.00 118.00 167.00
C 116.05 159.49 130.39 158.44 128.00 150.00
C 123.45 148.38 120.14 151.58 117.00 153.00 Z"/>
</g>
<g fill="None" fill-opacity="0.0" stroke="#847076" stroke-opacity="1.00" stroke-width="0.3"><path d="
M 122.00 152.00 
C 123.00 152.06 124.00 151.95 125.00 152.00
C 123.64 153.51 124.51 156.46 122.00 157.00
C 121.11 158.18 120.12 159.97 119.00 161.00
C 121.93 158.27 127.01 155.46 127.00 151.00
C 125.20 150.15 123.14 151.77 122.00 152.00 Z"/>
</g>
<g fill="None" fill-opacity="0.0" stroke="#3D293D" stroke-opacity="1.00" stroke-width="0.3"><path d="
M 41.00 155.00 
C 42.03 161.36 42.95 167.31 48.00 172.00
L 53.00 172.00
C 49.61 165.96 43.29 159.32 43.00 152.00
C 42.22 153.46 41.40 152.25 41.00 155.00 Z"/>
</g>
<g fill="None" fill-opacity="0.0" stroke="#4F3950" stroke-opacity="1.00" stroke-width="0.3"><path d="
M 117.00 153.00 
C 113.61 153.79 110.53 154.61 107.00 155.00
C 108.48 156.40 109.86 156.25 110.00 158.00
C 114.90 159.48 116.27 155.57 120.00 154.00
C 119.91 155.28 122.03 155.76 122.00 157.00
C 124.51 156.46 123.64 153.51 125.00 152.00
C 124.00 151.95 123.00 152.06 122.00 152.00
C 120.28 152.35 118.69 152.60 117.00 153.00 Z"/>
</g>
<g fill="None" fill-opacity="0.0" stroke="#575258" stroke-opacity="1.00" stroke-width="0.3"><path d="
M 73.00 172.00 
L 88.00 172.00
C 88.70 170.02 91.17 169.27 93.00 169.00
C 91.32 159.10 77.25 167.62 73.00 172.00 Z"/>
</g>
<g fill="None" fill-opacity="0.0" stroke="#D3C1BE" stroke-opacity="1.00" stroke-width="0.3"><path d="
M 95.00 172.00 
L 99.00 172.00
C 98.24 169.30 101.90 170.04 102.00 172.00
L 105.00 172.00
C 102.90 169.02 99.96 166.21 97.00 164.00
C 97.15 166.94 97.27 169.89 95.00 172.00 Z"/>
</g>
<g fill="None" fill-opacity="0.0" stroke="#715F68" stroke-opacity="1.00" stroke-width="0.3"><path d="
M 124.00 167.00 
C 122.12 167.27 119.90 167.06 118.00 167.00
C 116.00 167.00 114.00 167.00 112.00 167.00
C 112.51 166.01 113.25 164.86 114.00 164.00
C 112.64 164.42 111.67 165.80 111.00 167.00
C 114.88 169.00 120.40 168.05 124.00 167.00 Z"/>
</g>
<g fill="None" fill-opacity="0.0" stroke="#3B2E42" stroke-opacity="1.00" stroke-width="0.3"><path d="
M 164.00 172.00 
L 169.00 172.00
C 170.23 170.77 170.48 169.51 171.00 168.00
C 168.91 164.00 165.83 170.21 164.00 172.00 Z"/>
</g>
<g fill="None" fill-opacity="0.0" stroke="#AAA6B0" stroke-opacity="1.00" stroke-width="0.3"><path d="
M 169.00 172.00 
L 172.00 172.00
L 172.00 168.00
C 172.00 168.00 171.11 168.21 171.00 168.00
C 170.48 169.51 170.23 170.77 169.00 172.00 Z"/>
</g>
<g fill="None" fill-opacity="0.0" stroke="#FCF0D1" stroke-opacity="1.00" stroke-width="0.3"><path d="
M 99.00 172.00 
L 102.00 172.00
C 101.90 170.04 98.24 169.30 99.00 172.00 Z"/>
</g>
<g fill="None" fill-opacity="0.0" stroke="#665671" stroke-opacity="1.00" stroke-width="0.3"><path d="
M 113.00 172.00 
L 124.00 172.00
C 124.00 172.00 123.87 171.04 124.00 171.00
C 120.57 170.69 115.70 170.47 113.00 172.00 Z"/>
</g>
<g fill="#565557" fill-opacity="1.00" stroke="None">
<path d="
M 0.00 94.00 
C 5.74 88.14 2.02 81.34 2.00 73.00 C 1.98 64.66 3.51 56.66 6.00 49.00
C 7.75 49.83 6.66 52.44 7.00 54.00
C 10.11 41.45 14.96 29.81 21.00 18.00
C 19.29 20.65 16.07 24.73 13.00 25.00
C 16.05 15.63 22.06 7.33 29.00 0.00
L 0.00 0.00
L 0.00 94.00 Z"/>
</g>
<g fill="#2F2034" fill-opacity="1.00" stroke="None">
<path d="
M 21.00 18.00 
C 24.33 11.48 29.03 5.68 34.00 0.00
L 29.00 0.00
C 22.06 7.33 16.05 15.63 13.00 25.00
C 16.07 24.73 19.29 20.65 21.00 18.00 Z"/>
</g>
<g fill="#AEADAE" fill-opacity="1.00" stroke="None">
<path d="
M 21.00 18.00 
C 14.96 29.81 10.11 41.45 7.00 54.00
C 4.87 62.59 4.62 75.98 6.00 85.00
C 6.70 88.61 8.06 95.37 12.00 97.00
C 12.00 100.33 12.00 103.67 12.00 107.00
C 10.44 106.59 9.31 107.46 8.00 108.00
C 5.45 114.59 3.79 123.94 3.00 131.00
C 2.76 133.18 2.15 136.46 2.00 138.00
C 1.76 149.86 2.18 161.51 7.00 172.00
L 32.00 172.00
C 30.43 164.31 26.67 155.54 29.00 147.00 C 31.33 138.46 29.58 132.33 26.02 124.98 C 22.47 117.62 24.00 108.30 22.00 102.00
C 25.01 109.08 31.09 113.81 37.00 119.00
C 30.66 105.92 29.17 92.77 34.00 79.00
C 31.00 79.00 28.00 79.00 25.00 79.00
C 22.75 78.66 16.59 75.69 22.00 74.00
C 22.79 73.75 24.17 74.00 25.00 74.00
C 28.95 74.00 33.84 74.69 37.00 73.00
C 41.64 69.11 42.55 58.52 45.92 52.92 C 49.30 47.33 53.81 39.47 57.00 34.00
C 57.74 32.72 58.37 30.48 59.00 29.00
C 61.82 22.39 65.23 15.64 69.00 10.00
C 70.10 23.01 63.22 37.89 67.00 52.00
C 68.09 59.65 68.16 70.76 75.00 75.00
C 72.83 80.59 76.93 85.50 80.00 90.00
C 82.15 91.23 82.21 91.08 83.00 89.00
C 82.74 86.36 83.19 83.65 83.00 81.00
C 89.53 84.58 95.09 95.43 103.00 99.00
C 104.30 92.52 112.29 84.05 106.00 79.00
C 112.81 76.94 112.08 68.42 114.00 62.00
C 115.44 53.47 117.00 44.83 117.00 36.00
C 117.00 33.70 115.37 26.70 118.31 25.31 C 121.24 23.91 121.62 33.07 121.00 35.00
C 120.58 26.54 127.66 25.46 127.00 35.00
C 128.30 43.15 132.59 52.52 136.32 59.68 C 140.05 66.84 145.44 76.47 154.00 77.00
C 154.91 80.53 156.31 84.27 160.00 86.00
C 160.30 88.67 157.98 89.91 157.00 92.00
C 156.94 95.14 156.85 98.06 156.00 101.00
C 156.65 99.89 158.40 98.75 158.00 97.00
C 160.21 96.29 161.46 97.90 161.00 100.00
C 164.84 85.83 169.56 67.67 169.00 53.00
C 168.91 50.65 169.91 46.94 167.00 46.00
C 168.22 56.73 138.70 47.71 149.00 39.00
C 155.57 39.86 164.90 43.76 170.00 41.00
C 170.37 36.79 171.00 32.52 171.00 28.00
C 171.00 25.16 170.21 21.02 172.00 19.00
L 172.00 5.00
C 170.51 3.84 169.98 1.66 169.00 0.00
L 34.00 0.00
C 29.03 5.68 24.33 11.48 21.00 18.00
M 35.00 18.00 
C 34.67 21.88 33.43 26.89 39.00 27.00
C 39.42 30.88 38.60 34.36 38.00 38.00
C 46.22 38.62 39.34 48.84 36.00 52.00
C 31.15 49.74 24.58 48.79 22.00 55.00
C 18.44 54.40 15.23 52.63 12.00 51.00
C 14.46 38.05 24.23 27.94 29.00 16.00
C 30.77 17.45 33.22 16.57 35.00 18.00
M 80.00 69.00 
C 80.74 71.55 81.96 75.98 80.00 78.00
C 78.59 75.82 76.62 73.85 77.00 71.00
C 74.96 61.93 73.81 52.67 74.00 43.00
C 74.07 39.41 73.69 35.93 76.00 33.00
C 79.09 38.87 82.94 35.12 91.07 36.93 C 99.20 38.73 100.40 46.62 95.00 53.00
C 89.42 50.23 83.22 56.64 79.00 51.00
C 78.36 56.95 81.08 62.46 80.00 69.00 Z"/>
</g>
<g fill="#3E2E46" fill-opacity="1.00" stroke="None">
<path d="
M 172.00 5.00 
L 172.00 0.00
L 169.00 0.00
C 169.98 1.66 170.51 3.84 172.00 5.00 Z"/>
</g>
<g fill="#6D6070" fill-opacity="1.00" stroke="None">
<path d="
M 59.00 29.00 
C 59.35 28.77 60.84 28.77 61.00 29.00
C 62.26 27.43 63.03 24.99 65.00 24.00
C 64.38 27.56 63.60 31.16 64.00 35.00
C 64.00 39.00 64.00 43.00 64.00 47.00
C 64.03 47.11 66.67 50.84 67.00 52.00
C 63.22 37.89 70.10 23.01 69.00 10.00
C 65.23 15.64 61.82 22.39 59.00 29.00 Z"/>
</g>
<g fill="#B0A2A1" fill-opacity="1.00" stroke="None">
<path d="
M 35.00 18.00 
C 33.22 16.57 30.77 17.45 29.00 16.00
C 24.23 27.94 14.46 38.05 12.00 51.00
C 15.23 52.63 18.44 54.40 22.00 55.00
C 24.58 48.79 31.15 49.74 36.00 52.00
C 39.34 48.84 46.22 38.62 38.00 38.00
C 38.60 34.36 39.42 30.88 39.00 27.00
C 33.43 26.89 34.67 21.88 35.00 18.00 Z"/>
</g>
<g fill="#756878" fill-opacity="1.00" stroke="None">
<path d="
M 171.00 28.00 
C 171.00 27.96 172.00 28.00 172.00 28.00
L 172.00 19.00
C 170.21 21.02 171.00 25.16 171.00 28.00 Z"/>
</g>
<g fill="#B9A8AB" fill-opacity="1.00" stroke="None">
<path d="
M 61.00 29.00 
C 60.76 29.30 61.00 30.00 61.00 30.00
C 64.04 28.16 62.92 32.92 63.00 35.00
C 63.00 34.98 64.00 35.00 64.00 35.00
C 63.60 31.16 64.38 27.56 65.00 24.00
C 63.03 24.99 62.26 27.43 61.00 29.00 Z"/>
</g>
<g fill="#948D97" fill-opacity="1.00" stroke="None">
<path d="
M 117.00 36.00 
C 117.20 33.97 118.34 30.34 119.00 28.00
C 121.93 31.49 118.64 38.14 119.00 41.00
C 119.63 40.10 121.75 39.79 121.00 38.00
C 123.03 37.36 123.06 39.69 123.00 41.00
C 123.16 40.77 124.73 40.75 125.00 41.00
C 124.03 37.32 122.26 32.21 124.00 29.00
C 126.18 30.54 125.29 33.57 127.00 35.00
C 127.66 25.46 120.58 26.54 121.00 35.00
C 121.62 33.07 121.24 23.91 118.31 25.31 C 115.37 26.70 117.00 33.70 117.00 36.00 Z"/>
</g>
<g fill="#706876" fill-opacity="1.00" stroke="None">
<path d="
M 117.00 36.00 
C 117.00 44.83 115.44 53.47 114.00 62.00
C 115.23 59.82 118.10 59.29 119.00 56.00
C 116.98 57.94 117.41 44.15 119.00 42.00
C 118.93 41.51 119.00 41.00 119.00 41.00
C 118.64 38.14 121.93 31.49 119.00 28.00
C 118.34 30.34 117.20 33.97 117.00 36.00 Z"/>
</g>
<g fill="#4C4053" fill-opacity="1.00" stroke="None">
<path d="
M 170.00 41.00 
C 169.65 44.93 170.00 49.05 170.00 53.00
C 170.00 71.09 170.00 88.52 170.00 107.00
C 170.00 112.71 171.36 121.26 169.00 126.00
C 168.61 126.77 167.59 128.50 167.00 129.00
C 168.30 128.41 168.66 128.11 170.00 129.00
C 171.20 126.91 170.18 123.55 172.00 122.00
L 172.00 28.00
C 172.00 28.00 171.00 27.96 171.00 28.00
C 171.00 32.52 170.37 36.79 170.00 41.00 Z"/>
</g>
<g fill="#392D3C" fill-opacity="1.00" stroke="None">
<path d="
M 57.00 34.00 
C 56.84 34.10 59.29 34.08 60.00 33.00
C 60.36 32.19 60.66 30.92 61.00 30.00
C 61.00 30.00 60.76 29.30 61.00 29.00
C 60.84 28.77 59.35 28.77 59.00 29.00
C 58.37 30.48 57.74 32.72 57.00 34.00 Z"/>
</g>
<g fill="#F7E7D4" fill-opacity="1.00" stroke="None">
<path d="
M 61.00 30.00 
C 60.66 30.92 60.36 32.19 60.00 33.00
C 57.19 39.24 53.13 45.03 50.08 51.08 C 47.02 57.12 45.11 64.87 41.00 70.00
C 40.76 70.30 41.00 71.00 41.00 71.00
C 41.77 71.83 42.28 72.59 42.00 74.00
C 48.26 76.38 60.22 74.00 67.00 74.00
C 67.75 72.25 67.28 71.98 67.00 70.00
C 66.10 63.54 63.97 57.81 64.00 51.00
C 63.43 46.26 63.21 40.38 63.00 35.00
C 62.92 32.92 64.04 28.16 61.00 30.00 Z"/>
</g>
<g fill="#615561" fill-opacity="1.00" stroke="None">
<path d="
M 125.00 41.00 
C 127.12 49.05 131.51 56.54 135.00 64.00
C 136.77 66.98 140.18 70.02 142.00 73.00
C 141.66 71.65 140.51 69.60 143.00 70.00
C 146.25 78.60 159.58 80.88 157.00 92.00
C 157.98 89.91 160.30 88.67 160.00 86.00
C 156.31 84.27 154.91 80.53 154.00 77.00
C 145.44 76.47 140.05 66.84 136.32 59.68 C 132.59 52.52 128.30 43.15 127.00 35.00
C 125.29 33.57 126.18 30.54 124.00 29.00
C 122.26 32.21 124.03 37.32 125.00 41.00 Z"/>
</g>
<g fill="#726672" fill-opacity="1.00" stroke="None">
<path d="
M 57.00 34.00 
C 53.81 39.47 49.30 47.33 45.92 52.92 C 42.55 58.52 41.64 69.11 37.00 73.00
C 38.64 72.12 39.57 68.51 41.00 70.00
C 45.11 64.87 47.02 57.12 50.08 51.08 C 53.13 45.03 57.19 39.24 60.00 33.00
C 59.29 34.08 56.84 34.10 57.00 34.00 Z"/>
</g>
<g fill="#AD9FA0" fill-opacity="1.00" stroke="None">
<path d="
M 74.00 43.00 
C 74.21 41.78 74.89 37.69 77.00 38.00
C 76.80 48.56 77.06 58.97 79.00 69.00
C 79.00 68.98 80.00 69.00 80.00 69.00
C 81.08 62.46 78.36 56.95 79.00 51.00
C 83.22 56.64 89.42 50.23 95.00 53.00
C 100.40 46.62 99.20 38.73 91.07 36.93 C 82.94 35.12 79.09 38.87 76.00 33.00
C 73.69 35.93 74.07 39.41 74.00 43.00 Z"/>
</g>
<g fill="#928187" fill-opacity="1.00" stroke="None">
<path d="
M 64.00 51.00 
C 64.01 49.67 64.00 48.33 64.00 47.00
C 64.00 43.00 64.00 39.00 64.00 35.00
C 64.00 35.00 63.00 34.98 63.00 35.00
C 63.21 40.38 63.43 46.26 64.00 51.00 Z"/>
</g>
<g fill="#665764" fill-opacity="1.00" stroke="None">
<path d="
M 74.00 43.00 
C 73.81 52.67 74.96 61.93 77.00 71.00
C 76.89 71.35 78.88 71.75 79.00 69.00
C 77.06 58.97 76.80 48.56 77.00 38.00
C 74.89 37.69 74.21 41.78 74.00 43.00 Z"/>
</g>
<g fill="#2A202D" fill-opacity="1.00" stroke="None">
<path d="
M 119.00 41.00 
C 119.00 41.00 118.93 41.51 119.00 42.00
C 119.17 43.13 120.78 43.40 121.00 44.00
C 121.31 43.42 122.71 42.55 123.00 42.00
C 123.08 41.51 123.00 41.00 123.00 41.00
C 123.06 39.69 123.03 37.36 121.00 38.00
C 121.75 39.79 119.63 40.10 119.00 41.00 Z"/>
</g>
<g fill="#AFA2A2" fill-opacity="1.00" stroke="None">
<path d="
M 169.00 53.00 
C 169.00 52.98 170.00 53.00 170.00 53.00
C 170.00 49.05 169.65 44.93 170.00 41.00
C 164.90 43.76 155.57 39.86 149.00 39.00
C 138.70 47.71 168.22 56.73 167.00 46.00
C 169.91 46.94 168.91 50.65 169.00 53.00 Z"/>
</g>
<g fill="#F6E7D5" fill-opacity="1.00" stroke="None">
<path d="
M 123.00 42.00 
C 122.07 47.68 121.28 53.82 120.00 59.00
C 118.68 64.32 118.18 69.90 116.00 75.00
C 116.23 74.92 119.67 76.94 120.00 77.00
C 123.27 77.00 127.86 77.71 131.00 77.00 C 134.14 76.29 140.39 78.68 143.00 77.00
C 141.07 72.41 137.17 68.64 135.00 64.00
C 131.51 56.54 127.12 49.05 125.00 41.00
C 124.73 40.75 123.16 40.77 123.00 41.00
C 123.00 41.00 123.08 41.51 123.00 42.00 Z"/>
</g>
<g fill="#A397AC" fill-opacity="1.00" stroke="None">
<path d="
M 119.00 56.00 
C 119.13 55.54 118.94 54.49 119.00 54.00
C 119.35 51.07 119.60 46.62 121.00 44.00
C 120.78 43.40 119.17 43.13 119.00 42.00
C 117.41 44.15 116.98 57.94 119.00 56.00 Z"/>
</g>
<g fill="#7E6D77" fill-opacity="1.00" stroke="None">
<path d="
M 121.00 44.00 
C 119.60 46.62 119.35 51.07 119.00 54.00
C 119.07 55.09 120.06 57.21 120.00 59.00
C 121.28 53.82 122.07 47.68 123.00 42.00
C 122.71 42.55 121.31 43.42 121.00 44.00 Z"/>
</g>
<g fill="#554658" fill-opacity="1.00" stroke="None">
<path d="
M 64.00 51.00 
C 63.97 57.81 66.10 63.54 67.00 70.00
C 67.46 71.46 70.15 72.40 68.00 74.00
C 69.02 74.10 71.46 73.96 73.00 75.00
C 73.11 80.04 74.28 84.09 73.00 89.00
C 74.38 85.81 77.61 92.33 78.00 93.00
C 82.05 99.96 89.73 104.64 88.00 92.00
C 93.01 93.00 98.57 107.70 104.25 104.20 C 109.92 100.70 108.85 87.22 112.00 82.00
C 112.08 81.51 112.00 81.00 112.00 81.00
C 107.26 79.10 112.15 77.23 115.00 77.00
C 114.04 77.54 116.26 74.40 116.00 75.00
C 118.18 69.90 118.68 64.32 120.00 59.00
C 120.06 57.21 119.07 55.09 119.00 54.00
C 118.94 54.49 119.13 55.54 119.00 56.00
C 118.10 59.29 115.23 59.82 114.00 62.00
C 112.08 68.42 112.81 76.94 106.00 79.00
C 112.29 84.05 104.30 92.52 103.00 99.00
C 95.09 95.43 89.53 84.58 83.00 81.00
C 83.19 83.65 82.74 86.36 83.00 89.00
C 83.16 90.63 84.94 93.67 84.00 96.00
C 82.44 94.34 80.92 92.22 80.00 90.00
C 76.93 85.50 72.83 80.59 75.00 75.00
C 68.16 70.76 68.09 59.65 67.00 52.00
C 66.67 50.84 64.03 47.11 64.00 47.00
C 64.00 48.33 64.01 49.67 64.00 51.00
M 117.00 63.00 
C 117.50 69.91 110.98 64.36 117.00 63.00 Z"/>
</g>
<g fill="#423948" fill-opacity="1.00" stroke="None">
<path d="
M 0.00 94.00 
L 0.00 100.00
C -0.36 97.85 3.88 95.45 2.97 92.97 C 2.07 90.50 7.29 86.73 7.00 88.00
C 6.79 86.94 6.18 86.19 6.00 85.00
C 4.62 75.98 4.87 62.59 7.00 54.00
C 6.66 52.44 7.75 49.83 6.00 49.00
C 3.51 56.66 1.98 64.66 2.00 73.00 C 2.02 81.34 5.74 88.14 0.00 94.00 Z"/>
</g>
<g fill="#6E6173" fill-opacity="1.00" stroke="None">
<path d="
M 161.00 100.00 
C 159.35 106.10 158.54 112.12 156.00 118.00
C 156.90 117.22 158.22 117.55 159.00 117.00
C 163.61 104.51 168.74 91.27 168.00 77.00
C 170.98 85.93 167.02 98.15 170.00 107.00
C 170.00 88.52 170.00 71.09 170.00 53.00
C 170.00 53.00 169.00 52.98 169.00 53.00
C 169.56 67.67 164.84 85.83 161.00 100.00 Z"/>
</g>
<g fill="#1A0827" fill-opacity="1.00" stroke="None">
<path d="
M 117.00 63.00 
C 110.98 64.36 117.50 69.91 117.00 63.00 Z"/>
</g>
<g fill="#A28E94" fill-opacity="1.00" stroke="None">
<path d="
M 143.00 77.00 
C 144.79 75.85 142.80 74.30 142.00 73.00
C 140.18 70.02 136.77 66.98 135.00 64.00
C 137.17 68.64 141.07 72.41 143.00 77.00 Z"/>
</g>
<g fill="#3D2A42" fill-opacity="1.00" stroke="None">
<path d="
M 37.00 73.00 
C 33.84 74.69 28.95 74.00 25.00 74.00
C 23.76 74.42 21.27 76.54 23.00 78.00
C 22.92 77.96 25.23 79.06 25.00 79.00
C 28.00 79.00 31.00 79.00 34.00 79.00
C 29.17 92.77 30.66 105.92 37.00 119.00
C 31.09 113.81 25.01 109.08 22.00 102.00
C 24.00 108.30 22.47 117.62 26.02 124.98 C 29.58 132.33 31.33 138.46 29.00 147.00 C 26.67 155.54 30.43 164.31 32.00 172.00
L 37.00 172.00
C 32.87 162.04 31.63 149.83 34.00 139.00
C 35.25 139.30 35.71 140.83 37.00 141.00
C 39.57 142.52 40.32 143.20 42.70 145.30 C 45.07 147.40 49.43 143.90 48.00 144.00
C 41.96 141.05 34.96 135.19 32.00 129.00
C 30.66 126.20 29.66 123.27 30.00 120.00
C 32.36 121.74 34.51 123.55 37.00 125.00
C 37.89 125.61 38.96 126.77 40.00 127.00
C 40.48 127.11 41.60 126.80 42.00 127.00
C 43.00 126.99 44.00 127.01 45.00 127.00
C 45.59 124.73 44.15 123.10 44.00 121.00
C 43.54 120.39 43.38 119.61 43.00 119.00
C 40.95 115.70 38.48 111.36 37.08 107.92 C 35.67 104.48 33.57 96.39 35.00 93.00 C 36.43 89.61 35.87 80.36 39.00 79.00
C 40.79 77.55 43.55 77.99 46.00 78.00
C 47.33 78.01 48.67 78.00 50.00 78.00
C 54.88 77.33 63.66 73.03 68.74 78.26 C 73.82 83.49 70.32 108.28 60.00 107.00
C 57.96 107.65 56.37 106.54 55.00 106.00
C 52.23 104.92 50.88 103.35 49.00 101.00
C 47.75 99.43 46.37 98.16 46.00 96.00
C 45.92 95.51 46.00 94.50 46.00 94.00
C 45.63 92.78 45.10 91.75 45.00 90.00
C 44.65 88.03 44.39 83.09 42.00 82.00
C 42.32 85.63 41.57 89.38 42.00 93.00
C 43.80 100.49 47.46 110.76 57.02 110.98 C 66.59 111.19 72.20 101.15 73.00 93.00
C 73.13 91.68 72.94 90.32 73.00 89.00
C 74.28 84.09 73.11 80.04 73.00 75.00
C 71.46 73.96 69.02 74.10 68.00 74.00
C 67.50 73.95 67.00 74.00 67.00 74.00
C 60.22 74.00 48.26 76.38 42.00 74.00
C 40.25 73.34 39.57 73.00 41.00 71.00
C 41.00 71.00 40.76 70.30 41.00 70.00
C 39.57 68.51 38.64 72.12 37.00 73.00 Z"/>
</g>
<g fill="#79767D" fill-opacity="1.00" stroke="None">
<path d="
M 77.00 71.00 
C 76.62 73.85 78.59 75.82 80.00 78.00
C 81.96 75.98 80.74 71.55 80.00 69.00
C 80.00 69.00 79.00 68.98 79.00 69.00
C 78.88 71.75 76.89 71.35 77.00 71.00 Z"/>
</g>
<g fill="#998690" fill-opacity="1.00" stroke="None">
<path d="
M 67.00 74.00 
C 67.00 74.00 67.50 73.95 68.00 74.00
C 70.15 72.40 67.46 71.46 67.00 70.00
C 67.28 71.98 67.75 72.25 67.00 74.00 Z"/>
</g>
<g fill="#3B2338" fill-opacity="1.00" stroke="None">
<path d="
M 142.00 73.00 
C 142.80 74.30 144.79 75.85 143.00 77.00
C 140.39 78.68 134.14 76.29 131.00 77.00 C 127.86 77.71 123.27 77.00 120.00 77.00
C 118.35 77.00 116.64 76.87 115.00 77.00
C 112.15 77.23 107.26 79.10 112.00 81.00
C 113.30 80.55 115.62 80.99 117.00 81.00
C 119.33 81.02 121.67 80.99 124.00 81.00
C 124.00 83.33 124.00 85.67 124.00 88.00
C 124.21 89.74 124.82 92.66 125.00 95.00
C 125.59 102.76 128.44 113.66 137.08 115.92 C 145.72 118.19 153.95 108.15 156.00 101.00
C 156.85 98.06 156.94 95.14 157.00 92.00
C 159.58 80.88 146.25 78.60 143.00 70.00
C 140.51 69.60 141.66 71.65 142.00 73.00
M 151.00 102.00 
C 150.66 103.06 150.57 103.96 150.00 105.00
C 148.81 107.17 146.17 109.91 144.00 111.00
C 142.53 111.74 141.70 111.91 140.00 112.00
C 134.59 113.07 129.20 107.27 129.00 101.00
C 128.98 100.50 129.00 99.50 129.00 99.00
C 125.95 94.50 127.36 89.71 128.00 85.00
C 128.00 84.15 127.57 81.71 128.00 81.00
C 130.57 78.33 143.08 79.65 147.00 80.00
C 157.84 81.15 153.75 96.78 151.00 102.00 Z"/>
</g>
<g fill="#CCB8C7" fill-opacity="1.00" stroke="None">
<path d="
M 42.00 74.00 
C 42.28 72.59 41.77 71.83 41.00 71.00
C 39.57 73.00 40.25 73.34 42.00 74.00 Z"/>
</g>
<g fill="#837D89" fill-opacity="1.00" stroke="None">
<path d="
M 25.00 79.00 
C 25.23 79.06 22.92 77.96 23.00 78.00
C 21.72 77.40 20.00 74.96 22.00 74.00
C 16.59 75.69 22.75 78.66 25.00 79.00 Z"/>
</g>
<g fill="#625D67" fill-opacity="1.00" stroke="None">
<path d="
M 23.00 78.00 
C 21.27 76.54 23.76 74.42 25.00 74.00
C 24.17 74.00 22.79 73.75 22.00 74.00
C 20.00 74.96 21.72 77.40 23.00 78.00 Z"/>
</g>
<g fill="#B5A0B1" fill-opacity="1.00" stroke="None">
<path d="
M 115.00 77.00 
C 116.64 76.87 118.35 77.00 120.00 77.00
C 119.67 76.94 116.23 74.92 116.00 75.00
C 116.26 74.40 114.04 77.54 115.00 77.00 Z"/>
</g>
<g fill="#4C2B26" fill-opacity="1.00" stroke="None">
<path d="
M 50.00 78.00 
C 52.00 78.00 54.00 78.00 56.00 78.00
C 58.70 78.00 64.63 76.84 67.00 78.00
C 69.37 79.16 68.76 80.71 69.00 83.00
C 69.65 89.14 68.82 96.72 66.00 102.00
C 64.87 104.12 63.26 105.56 61.00 106.00
C 60.52 106.09 60.00 106.00 60.00 106.00
C 59.75 106.25 60.00 107.00 60.00 107.00
C 70.32 108.28 73.82 83.49 68.74 78.26 C 63.66 73.03 54.88 77.33 50.00 78.00 Z"/>
</g>
<g fill="#ACA8AD" fill-opacity="1.00" stroke="None">
<path d="
M 159.00 117.00 
C 156.72 123.18 154.93 129.46 151.00 135.00
C 154.53 134.78 157.72 133.22 161.00 132.00
C 162.62 131.02 167.95 127.62 169.00 126.00
C 171.36 121.26 170.00 112.71 170.00 107.00
C 167.02 98.15 170.98 85.93 168.00 77.00
C 168.74 91.27 163.61 104.51 159.00 117.00 Z"/>
</g>
<g fill="#7A6463" fill-opacity="1.00" stroke="None">
<path d="
M 39.00 79.00 
C 39.91 78.60 41.99 79.00 43.00 79.00
C 43.39 79.00 45.76 79.26 46.00 79.00
C 46.25 78.73 46.00 78.00 46.00 78.00
C 43.55 77.99 40.79 77.55 39.00 79.00 Z"/>
</g>
<g fill="#937248" fill-opacity="1.00" stroke="None">
<path d="
M 46.00 79.00 
C 49.50 79.32 53.28 78.26 56.00 78.00
C 54.00 78.00 52.00 78.00 50.00 78.00
C 48.67 78.00 47.33 78.01 46.00 78.00
C 46.00 78.00 46.25 78.73 46.00 79.00 Z"/>
</g>
<g fill="#F8CF5C" fill-opacity="1.00" stroke="None">
<path d="
M 46.00 79.00 
C 46.00 84.00 46.00 89.00 46.00 94.00
C 46.00 94.50 45.92 95.51 46.00 96.00
C 46.79 97.38 48.14 99.67 49.00 101.00
C 50.88 103.35 52.23 104.92 55.00 106.00
C 56.56 106.27 58.41 106.00 60.00 106.00
C 60.00 106.00 60.52 106.09 61.00 106.00
C 62.13 105.28 65.20 103.17 66.00 102.00
C 68.82 96.72 69.65 89.14 69.00 83.00
C 68.92 82.56 67.68 78.45 67.00 78.00
C 64.63 76.84 58.70 78.00 56.00 78.00
C 53.28 78.26 49.50 79.32 46.00 79.00 Z"/>
</g>
<g fill="#8C6944" fill-opacity="1.00" stroke="None">
<path d="
M 69.00 83.00 
C 68.76 80.71 69.37 79.16 67.00 78.00
C 67.68 78.45 68.92 82.56 69.00 83.00 Z"/>
</g>
<g fill="#FBEBD6" fill-opacity="1.00" stroke="None">
<path d="
M 43.00 119.00 
C 44.70 121.09 49.18 122.67 46.67 126.67 C 44.15 130.67 41.99 128.89 40.00 127.00
C 38.96 126.77 37.89 125.61 37.00 125.00
C 39.63 125.40 32.29 128.05 32.00 129.00
C 34.96 135.19 41.96 141.05 48.00 144.00
C 51.63 145.78 54.86 146.47 58.00 149.00
C 58.44 149.16 59.57 148.83 60.00 149.00
C 66.02 151.36 73.00 154.93 79.00 156.00
C 88.50 155.68 97.77 156.03 107.00 155.00
C 110.53 154.61 113.61 153.79 117.00 153.00
C 120.14 151.58 123.45 148.38 128.00 150.00
C 130.39 158.44 116.05 159.49 118.00 167.00
C 119.90 167.06 122.12 167.27 124.00 167.00
C 126.50 166.27 130.84 165.35 133.00 164.00
C 135.98 161.48 134.70 156.47 136.32 153.32 C 137.95 150.18 140.21 148.07 143.00 146.00
C 145.29 144.30 147.49 143.03 150.00 142.00
C 152.87 142.31 144.89 138.88 145.00 139.00
C 142.13 135.84 148.59 132.30 150.25 129.25 C 151.91 126.20 154.54 121.39 156.00 118.00
C 158.54 112.12 159.35 106.10 161.00 100.00
C 161.46 97.90 160.21 96.29 158.00 97.00
C 158.40 98.75 156.65 99.89 156.00 101.00
C 153.95 108.15 145.72 118.19 137.08 115.92 C 128.44 113.66 125.59 102.76 125.00 95.00
C 124.69 93.10 124.10 90.50 124.00 88.00
C 124.00 85.67 124.00 83.33 124.00 81.00
C 121.67 80.99 119.33 81.02 117.00 81.00
C 115.77 81.16 113.96 82.63 112.00 82.00
C 108.85 87.22 109.92 100.70 104.25 104.20 C 98.57 107.70 93.01 93.00 88.00 92.00
C 89.73 104.64 82.05 99.96 78.00 93.00
C 77.08 91.74 75.17 90.94 75.00 89.00
C 73.02 89.47 75.11 92.60 73.00 93.00
C 72.20 101.15 66.59 111.19 57.02 110.98 C 47.46 110.76 43.80 100.49 42.00 93.00
C 41.27 89.96 39.81 84.96 42.00 82.00
C 41.81 81.91 42.00 81.00 42.00 81.00
C 42.02 80.89 43.03 78.99 43.00 79.00
C 41.99 79.00 39.91 78.60 39.00 79.00
C 35.87 80.36 36.43 89.61 35.00 93.00 C 33.57 96.39 35.67 104.48 37.08 107.92 C 38.48 111.36 40.95 115.70 43.00 119.00 Z"/>
</g>
<g fill="#BEA363" fill-opacity="1.00" stroke="None">
<path d="
M 42.00 81.00 
C 42.82 80.29 43.92 79.97 45.00 80.00
C 45.00 83.33 45.00 86.67 45.00 90.00
C 45.10 91.75 45.63 92.78 46.00 94.00
C 46.00 89.00 46.00 84.00 46.00 79.00
C 45.76 79.26 43.39 79.00 43.00 79.00
C 43.03 78.99 42.02 80.89 42.00 81.00 Z"/>
</g>
<g fill="#624A2E" fill-opacity="1.00" stroke="None">
<path d="
M 42.00 81.00 
C 42.00 81.00 41.81 81.91 42.00 82.00
C 44.39 83.09 44.65 88.03 45.00 90.00
C 45.00 86.67 45.00 83.33 45.00 80.00
C 43.92 79.97 42.82 80.29 42.00 81.00 Z"/>
</g>
<g fill="#927445" fill-opacity="1.00" stroke="None">
<path d="
M 128.00 81.00 
C 128.13 80.78 129.00 81.00 129.00 81.00
C 135.00 81.00 141.00 81.00 147.00 81.00
C 146.75 80.75 147.00 80.00 147.00 80.00
C 143.08 79.65 130.57 78.33 128.00 81.00 Z"/>
</g>
<g fill="#5F3F28" fill-opacity="1.00" stroke="None">
<path d="
M 147.00 81.00 
C 147.50 81.00 148.00 81.00 148.00 81.00
C 150.38 82.16 152.46 84.58 153.00 87.00
C 154.15 92.19 152.46 97.41 151.00 102.00
C 153.75 96.78 157.84 81.15 147.00 80.00
C 147.00 80.00 146.75 80.75 147.00 81.00 Z"/>
</g>
<g fill="#AE9BA5" fill-opacity="1.00" stroke="None">
<path d="
M 112.00 82.00 
C 113.96 82.63 115.77 81.16 117.00 81.00
C 115.62 80.99 113.30 80.55 112.00 81.00
C 112.00 81.00 112.08 81.51 112.00 82.00 Z"/>
</g>
<g fill="#BC9C60" fill-opacity="1.00" stroke="None">
<path d="
M 128.00 85.00 
C 128.00 88.60 127.00 94.30 129.00 97.00
C 129.00 91.74 129.47 86.24 129.00 81.00
C 129.00 81.00 128.13 80.78 128.00 81.00
C 127.57 81.71 128.00 84.15 128.00 85.00 Z"/>
</g>
<g fill="#F9D05B" fill-opacity="1.00" stroke="None">
<path d="
M 129.00 97.00 
C 129.00 97.50 129.00 98.00 129.00 98.00
C 130.47 99.81 130.33 101.72 131.00 104.00
C 131.23 104.79 131.67 106.30 132.00 107.00
C 132.39 107.61 136.50 111.78 137.00 112.00
C 137.81 112.21 139.17 112.04 140.00 112.00
C 141.70 111.91 142.53 111.74 144.00 111.00
C 145.30 110.19 149.12 106.22 150.00 105.00
C 150.57 103.96 150.66 103.06 151.00 102.00
C 152.46 97.41 154.15 92.19 153.00 87.00
C 152.43 85.14 149.21 82.73 148.00 81.00
C 148.00 81.00 147.50 81.00 147.00 81.00
C 141.00 81.00 135.00 81.00 129.00 81.00
C 129.47 86.24 129.00 91.74 129.00 97.00 Z"/>
</g>
<g fill="#9C794E" fill-opacity="1.00" stroke="None">
<path d="
M 153.00 87.00 
C 152.46 84.58 150.38 82.16 148.00 81.00
C 149.21 82.73 152.43 85.14 153.00 87.00 Z"/>
</g>
<g fill="#AC96A4" fill-opacity="1.00" stroke="None">
<path d="
M 42.00 93.00 
C 41.57 89.38 42.32 85.63 42.00 82.00
C 39.81 84.96 41.27 89.96 42.00 93.00 Z"/>
</g>
<g fill="#6D6274" fill-opacity="1.00" stroke="None">
<path d="
M 7.00 88.00 
C 8.41 94.98 9.38 99.54 11.00 105.00
C 9.78 105.93 7.57 105.83 8.00 108.00
C 9.31 107.46 10.44 106.59 12.00 107.00
C 12.00 103.67 12.00 100.33 12.00 97.00
C 8.06 95.37 6.70 88.61 6.00 85.00
C 6.18 86.19 6.79 86.94 7.00 88.00 Z"/>
</g>
<g fill="#4E2F24" fill-opacity="1.00" stroke="None">
<path d="
M 129.00 99.00 
C 129.00 98.50 129.00 98.00 129.00 98.00
C 129.00 98.00 129.00 97.50 129.00 97.00
C 127.00 94.30 128.00 88.60 128.00 85.00
C 127.36 89.71 125.95 94.50 129.00 99.00 Z"/>
</g>
<g fill="#2C1936" fill-opacity="1.00" stroke="None">
<path d="
M 0.00 100.00 
L 0.00 172.00
L 7.00 172.00
C 2.18 161.51 1.76 149.86 2.00 138.00
C 2.05 135.37 2.60 132.98 3.00 131.00
C 3.79 123.94 5.45 114.59 8.00 108.00
C 7.57 105.83 9.78 105.93 11.00 105.00
C 9.38 99.54 8.41 94.98 7.00 88.00
C 7.29 86.73 2.07 90.50 2.97 92.97 C 3.88 95.45 -0.36 97.85 0.00 100.00 Z"/>
</g>
<g fill="#A5959B" fill-opacity="1.00" stroke="None">
<path d="
M 73.00 89.00 
C 72.94 90.32 73.13 91.68 73.00 93.00
C 75.11 92.60 73.02 89.47 75.00 89.00
C 75.17 90.94 77.08 91.74 78.00 93.00
C 77.61 92.33 74.38 85.81 73.00 89.00 Z"/>
</g>
<g fill="#8F7B84" fill-opacity="1.00" stroke="None">
<path d="
M 125.00 95.00 
C 124.82 92.66 124.21 89.74 124.00 88.00
C 124.10 90.50 124.69 93.10 125.00 95.00 Z"/>
</g>
<g fill="#A193A6" fill-opacity="1.00" stroke="None">
<path d="
M 80.00 90.00 
C 80.92 92.22 82.44 94.34 84.00 96.00
C 84.94 93.67 83.16 90.63 83.00 89.00
C 82.21 91.08 82.15 91.23 80.00 90.00 Z"/>
</g>
<g fill="#9D7A4B" fill-opacity="1.00" stroke="None">
<path d="
M 49.00 101.00 
C 48.14 99.67 46.79 97.38 46.00 96.00
C 46.37 98.16 47.75 99.43 49.00 101.00 Z"/>
</g>
<g fill="#BA9B5A" fill-opacity="1.00" stroke="None">
<path d="
M 129.00 99.00 
C 129.00 99.50 128.98 100.50 129.00 101.00
C 129.19 101.77 130.64 103.27 131.00 104.00
C 130.33 101.72 130.47 99.81 129.00 98.00
C 129.00 98.00 129.00 98.50 129.00 99.00 Z"/>
</g>
<g fill="#563523" fill-opacity="1.00" stroke="None">
<path d="
M 140.00 112.00 
C 139.17 112.04 137.81 112.21 137.00 112.00
C 135.24 111.55 132.72 108.51 132.00 107.00
C 131.67 106.30 131.23 104.79 131.00 104.00
C 130.64 103.27 129.19 101.77 129.00 101.00
C 129.20 107.27 134.59 113.07 140.00 112.00 Z"/>
</g>
<g fill="#795934" fill-opacity="1.00" stroke="None">
<path d="
M 61.00 106.00 
C 63.26 105.56 64.87 104.12 66.00 102.00
C 65.20 103.17 62.13 105.28 61.00 106.00 Z"/>
</g>
<g fill="#997C46" fill-opacity="1.00" stroke="None">
<path d="
M 144.00 111.00 
C 146.17 109.91 148.81 107.17 150.00 105.00
C 149.12 106.22 145.30 110.19 144.00 111.00 Z"/>
</g>
<g fill="#8A6D43" fill-opacity="1.00" stroke="None">
<path d="
M 60.00 107.00 
C 60.00 107.00 59.75 106.25 60.00 106.00
C 58.41 106.00 56.56 106.27 55.00 106.00
C 56.37 106.54 57.96 107.65 60.00 107.00 Z"/>
</g>
<g fill="#957641" fill-opacity="1.00" stroke="None">
<path d="
M 137.00 112.00 
C 136.50 111.78 132.39 107.61 132.00 107.00
C 132.72 108.51 135.24 111.55 137.00 112.00 Z"/>
</g>
<g fill="#2E1A37" fill-opacity="1.00" stroke="None">
<path d="
M 156.00 118.00 
C 154.54 121.39 151.91 126.20 150.25 129.25 C 148.59 132.30 142.13 135.84 145.00 139.00
C 146.13 139.65 150.66 139.18 152.00 139.00
C 153.18 138.84 155.47 137.37 157.00 137.00
C 157.46 139.04 154.42 145.05 153.00 141.00
C 151.76 140.96 151.09 141.55 150.00 142.00
C 147.49 143.03 145.29 144.30 143.00 146.00
C 137.34 150.93 138.19 160.75 133.00 164.00
C 130.84 165.35 126.50 166.27 124.00 167.00
C 120.40 168.05 114.88 169.00 111.00 167.00
C 111.67 165.80 112.64 164.42 114.00 164.00
C 115.44 162.82 117.48 162.13 119.00 161.00
C 120.12 159.97 121.11 158.18 122.00 157.00
C 122.03 155.76 119.91 155.28 120.00 154.00
C 116.27 155.57 114.90 159.48 110.00 158.00
C 109.86 156.25 108.48 156.40 107.00 155.00
C 97.77 156.03 88.50 155.68 79.00 156.00
C 76.08 156.10 72.00 156.08 70.00 159.00
C 69.60 164.06 65.32 167.72 63.00 172.00
L 73.00 172.00
C 77.25 167.62 91.32 159.10 93.00 169.00
C 91.17 169.27 88.70 170.02 88.00 172.00
L 95.00 172.00
C 97.27 169.89 97.15 166.94 97.00 164.00
C 99.96 166.21 102.90 169.02 105.00 172.00
L 113.00 172.00
C 115.70 170.47 120.57 170.69 124.00 171.00
C 133.79 168.18 139.97 163.24 147.75 156.75 C 155.54 150.27 157.70 139.62 165.00 135.00
C 166.84 133.36 168.03 129.83 171.00 130.00
C 171.67 140.83 169.67 152.99 172.00 163.00
L 172.00 122.00
C 170.18 123.55 171.20 126.91 170.00 129.00
C 168.66 128.11 168.30 128.41 167.00 129.00
C 165.01 129.90 163.07 131.01 161.00 132.00
C 157.72 133.22 154.53 134.78 151.00 135.00
C 154.93 129.46 156.72 123.18 159.00 117.00
C 158.22 117.55 156.90 117.22 156.00 118.00 Z"/>
</g>
<g fill="#CCBABA" fill-opacity="1.00" stroke="None">
<path d="
M 44.00 121.00 
C 46.10 123.76 46.94 129.50 42.00 127.00
C 41.60 126.80 40.48 127.11 40.00 127.00
C 41.99 128.89 44.15 130.67 46.67 126.67 C 49.18 122.67 44.70 121.09 43.00 119.00
C 43.38 119.61 43.54 120.39 44.00 121.00 Z"/>
</g>
<g fill="#E1CFCF" fill-opacity="1.00" stroke="None">
<path d="
M 32.00 129.00 
C 32.29 128.05 39.63 125.40 37.00 125.00
C 34.51 123.55 32.36 121.74 30.00 120.00
C 29.66 123.27 30.66 126.20 32.00 129.00 Z"/>
</g>
<g fill="#6C5860" fill-opacity="1.00" stroke="None">
<path d="
M 42.00 127.00 
C 46.94 129.50 46.10 123.76 44.00 121.00
C 44.15 123.10 45.59 124.73 45.00 127.00
C 44.00 127.01 43.00 126.99 42.00 127.00 Z"/>
</g>
<g fill="#897D8E" fill-opacity="1.00" stroke="None">
<path d="
M 161.00 132.00 
C 163.07 131.01 165.01 129.90 167.00 129.00
C 167.59 128.50 168.61 126.77 169.00 126.00
C 167.95 127.62 162.62 131.02 161.00 132.00 Z"/>
</g>
<g fill="#685B6E" fill-opacity="1.00" stroke="None">
<path d="
M 165.00 135.00 
C 166.65 133.96 168.48 133.25 170.00 132.00
C 168.28 145.50 175.00 162.37 163.00 172.00
L 164.00 172.00
C 165.83 170.21 168.91 164.00 171.00 168.00
C 171.11 168.21 172.00 168.00 172.00 168.00
L 172.00 163.00
C 169.67 152.99 171.67 140.83 171.00 130.00
C 168.03 129.83 166.84 133.36 165.00 135.00 Z"/>
</g>
<g fill="#64576A" fill-opacity="1.00" stroke="None">
<path d="
M 2.00 138.00 
C 2.15 136.46 2.76 133.18 3.00 131.00
C 2.60 132.98 2.05 135.37 2.00 138.00 Z"/>
</g>
<g fill="#ACAAAD" fill-opacity="1.00" stroke="None">
<path d="
M 165.00 135.00 
C 157.70 139.62 155.54 150.27 147.75 156.75 C 139.97 163.24 133.79 168.18 124.00 171.00
C 123.87 171.04 124.00 172.00 124.00 172.00
L 163.00 172.00
C 175.00 162.37 168.28 145.50 170.00 132.00
C 168.48 133.25 166.65 133.96 165.00 135.00 Z"/>
</g>
<g fill="#624D6C" fill-opacity="1.00" stroke="None">
<path d="
M 152.00 139.00 
C 152.98 139.27 154.62 139.62 153.00 141.00
C 154.42 145.05 157.46 139.04 157.00 137.00
C 155.47 137.37 153.18 138.84 152.00 139.00 Z"/>
</g>
<g fill="#A9989C" fill-opacity="1.00" stroke="None">
<path d="
M 37.00 172.00 
L 48.00 172.00
C 42.95 167.31 42.03 161.36 41.00 155.00
C 40.35 151.02 40.85 144.03 37.00 141.00
C 35.71 140.83 35.25 139.30 34.00 139.00
C 31.63 149.83 32.87 162.04 37.00 172.00 Z"/>
</g>
<g fill="#8B7886" fill-opacity="1.00" stroke="None">
<path d="
M 150.00 142.00 
C 151.09 141.55 151.76 140.96 153.00 141.00
C 154.62 139.62 152.98 139.27 152.00 139.00
C 150.66 139.18 146.13 139.65 145.00 139.00
C 144.89 138.88 152.87 142.31 150.00 142.00 Z"/>
</g>
<g fill="#5A475A" fill-opacity="1.00" stroke="None">
<path d="
M 41.00 155.00 
C 41.40 152.25 42.22 153.46 43.00 152.00
C 43.69 150.70 42.48 148.39 43.00 147.00
C 52.98 147.90 61.07 154.55 71.00 156.00
C 71.53 157.28 70.03 157.86 70.00 159.00
C 72.00 156.08 76.08 156.10 79.00 156.00
C 73.00 154.93 66.02 151.36 60.00 149.00
C 62.98 152.01 53.79 151.11 54.00 148.00
C 55.56 147.59 56.69 148.46 58.00 149.00
C 54.86 146.47 51.63 145.78 48.00 144.00
C 49.43 143.90 45.07 147.40 42.70 145.30 C 40.32 143.20 39.57 142.52 37.00 141.00
C 40.85 144.03 40.35 151.02 41.00 155.00 Z"/>
</g>
<g fill="#8E7A86" fill-opacity="1.00" stroke="None">
<path d="
M 133.00 164.00 
C 138.19 160.75 137.34 150.93 143.00 146.00
C 140.21 148.07 137.95 150.18 136.32 153.32 C 134.70 156.47 135.98 161.48 133.00 164.00 Z"/>
</g>
<g fill="#AE9D9F" fill-opacity="1.00" stroke="None">
<path d="
M 43.00 152.00 
C 43.29 159.32 49.61 165.96 53.00 172.00
L 63.00 172.00
C 65.32 167.72 69.60 164.06 70.00 159.00
C 70.03 157.86 71.53 157.28 71.00 156.00
C 61.07 154.55 52.98 147.90 43.00 147.00
C 42.48 148.39 43.69 150.70 43.00 152.00 Z"/>
</g>
<g fill="#261127" fill-opacity="1.00" stroke="None">
<path d="
M 60.00 149.00 
C 59.57 148.83 58.44 149.16 58.00 149.00
C 56.69 148.46 55.56 147.59 54.00 148.00
C 53.79 151.11 62.98 152.01 60.00 149.00 Z"/>
</g>
<g fill="#D5C3C2" fill-opacity="1.00" stroke="None">
<path d="
M 117.00 153.00 
C 118.69 152.60 120.28 152.35 122.00 152.00
C 123.14 151.77 125.20 150.15 127.00 151.00
C 127.01 155.46 121.93 158.27 119.00 161.00
C 117.48 162.13 115.44 162.82 114.00 164.00
C 113.25 164.86 112.51 166.01 112.00 167.00
C 114.00 167.00 116.00 167.00 118.00 167.00
C 116.05 159.49 130.39 158.44 128.00 150.00
C 123.45 148.38 120.14 151.58 117.00 153.00 Z"/>
</g>
<g fill="#847076" fill-opacity="1.00" stroke="None">
<path d="
M 122.00 152.00 
C 123.00 152.06 124.00 151.95 125.00 152.00
C 123.64 153.51 124.51 156.46 122.00 157.00
C 121.11 158.18 120.12 159.97 119.00 161.00
C 121.93 158.27 127.01 155.46 127.00 151.00
C 125.20 150.15 123.14 151.77 122.00 152.00 Z"/>
</g>
<g fill="#3D293D" fill-opacity="1.00" stroke="None">
<path d="
M 41.00 155.00 
C 42.03 161.36 42.95 167.31 48.00 172.00
L 53.00 172.00
C 49.61 165.96 43.29 159.32 43.00 152.00
C 42.22 153.46 41.40 152.25 41.00 155.00 Z"/>
</g>
<g fill="#4F3950" fill-opacity="1.00" stroke="None">
<path d="
M 117.00 153.00 
C 113.61 153.79 110.53 154.61 107.00 155.00
C 108.48 156.40 109.86 156.25 110.00 158.00
C 114.90 159.48 116.27 155.57 120.00 154.00
C 119.91 155.28 122.03 155.76 122.00 157.00
C 124.51 156.46 123.64 153.51 125.00 152.00
C 124.00 151.95 123.00 152.06 122.00 152.00
C 120.28 152.35 118.69 152.60 117.00 153.00 Z"/>
</g>
<g fill="#575258" fill-opacity="1.00" stroke="None">
<path d="
M 73.00 172.00 
L 88.00 172.00
C 88.70 170.02 91.17 169.27 93.00 169.00
C 91.32 159.10 77.25 167.62 73.00 172.00 Z"/>
</g>
<g fill="#D3C1BE" fill-opacity="1.00" stroke="None">
<path d="
M 95.00 172.00 
L 99.00 172.00
C 98.24 169.30 101.90 170.04 102.00 172.00
L 105.00 172.00
C 102.90 169.02 99.96 166.21 97.00 164.00
C 97.15 166.94 97.27 169.89 95.00 172.00 Z"/>
</g>
<g fill="#715F68" fill-opacity="1.00" stroke="None">
<path d="
M 124.00 167.00 
C 122.12 167.27 119.90 167.06 118.00 167.00
C 116.00 167.00 114.00 167.00 112.00 167.00
C 112.51 166.01 113.25 164.86 114.00 164.00
C 112.64 164.42 111.67 165.80 111.00 167.00
C 114.88 169.00 120.40 168.05 124.00 167.00 Z"/>
</g>
<g fill="#3B2E42" fill-opacity="1.00" stroke="None">
<path d="
M 164.00 172.00 
L 169.00 172.00
C 170.23 170.77 170.48 169.51 171.00 168.00
C 168.91 164.00 165.83 170.21 164.00 172.00 Z"/>
</g>
<g fill="#AAA6B0" fill-opacity="1.00" stroke="None">
<path d="
M 169.00 172.00 
L 172.00 172.00
L 172.00 168.00
C 172.00 168.00 171.11 168.21 171.00 168.00
C 170.48 169.51 170.23 170.77 169.00 172.00 Z"/>
</g>
<g fill="#FCF0D1" fill-opacity="1.00" stroke="None">
<path d="
M 99.00 172.00 
L 102.00 172.00
C 101.90 170.04 98.24 169.30 99.00 172.00 Z"/>
</g>
<g fill="#665671" fill-opacity="1.00" stroke="None">
<path d="
M 113.00 172.00 
L 124.00 172.00
C 124.00 172.00 123.87 171.04 124.00 171.00
C 120.57 170.69 115.70 170.47 113.00 172.00 Z"/>
</g>
</svg>